<svg width="48" height="40" viewBox="0 0 48 40" fill="none" xmlns="http://www.w3.org/2000/svg">
<path d="M19 26.75H15.25V28.625C15.25 28.9766 15.5234 29.25 15.875 29.25H18.375C18.6875 29.25 19 28.9766 19 28.625V26.75ZM18.375 30.5H15.875C14.8203 30.5 14 29.6797 14 28.625V26.75V26.125V25.5V15.5V14.875V14.25V12.375C14 11.3594 14.8203 10.5 15.875 10.5H18.375C18.8438 10.5 19.2734 10.6953 19.625 11.0078C19.9375 10.6953 20.3672 10.5 20.875 10.5H23.375C24.0391 10.5 24.5859 10.8516 24.9375 11.3984C25.0547 11.3203 25.1719 11.2812 25.3281 11.2422L27.6328 10.5781C28.6094 10.3047 29.625 10.8906 29.8594 11.9062L30.5625 14.6016L30.7188 15.2266L33.2188 24.8359L33.375 25.4219L33.9219 27.5312C34.1953 28.5078 33.6094 29.5625 32.6328 29.7969L30.3281 30.4609C29.3516 30.7344 28.375 30.1484 28.1016 29.1328L27.3984 26.4375L27.2422 25.8125L25.25 18.0781V25.5V26.125V26.75V28.625C25.25 29.6797 24.3906 30.5 23.375 30.5H20.875C20.3672 30.5 19.9375 30.3438 19.625 30.0312C19.2734 30.3438 18.8438 30.5 18.375 30.5ZM25.25 13.0391C25.25 13.0781 25.25 13.1562 25.25 13.1953L25.7969 15.2656L29.1953 14.3281L28.6484 12.2188C28.5703 11.8672 28.2578 11.7109 27.9844 11.7891L25.6406 12.4141C25.4453 12.4922 25.25 12.7266 25.25 13V13.0391ZM24 13.0391V12.375C24 12.0625 23.6875 11.75 23.375 11.75H20.875C20.5234 11.75 20.25 12.0625 20.25 12.375V14.25H24V13.0391ZM20.875 29.25H23.375C23.6875 29.25 24 28.9766 24 28.625V26.75H20.25V28.625C20.25 28.9766 20.5234 29.25 20.875 29.25ZM19 15.5H15.25V25.5H19V15.5ZM19 12.375C19 12.0625 18.6875 11.75 18.375 11.75H15.875C15.5234 11.75 15.25 12.0625 15.25 12.375V14.25H19V12.375ZM24 25.5V15.5H20.25V25.5H24ZM29.5078 15.5391L26.1094 16.4766L28.4531 25.5L31.8516 24.5625L29.5078 15.5391ZM32.1641 25.7734L28.7656 26.7109L29.3125 28.8203C29.3906 29.1719 29.7031 29.3281 29.9766 29.25L32.3203 28.5859C32.5938 28.5469 32.7891 28.1953 32.7109 27.8438L32.1641 25.7734Z" fill="white"/>
</svg>
