<svg width="48" height="40" viewBox="0 0 48 40" fill="none" xmlns="http://www.w3.org/2000/svg">
<path d="M19.375 10.5C19.6875 10.5 20 10.8125 20 11.125V13H27.5V11.125C27.5 10.8125 27.7734 10.5 28.125 10.5C28.4375 10.5 28.75 10.8125 28.75 11.125V13H30C31.3672 13 32.5 14.1328 32.5 15.5V16.75V18V28C32.5 29.4062 31.3672 30.5 30 30.5H17.5C16.0938 30.5 15 29.4062 15 28V18V16.75V15.5C15 14.1328 16.0938 13 17.5 13H18.75V11.125C18.75 10.8125 19.0234 10.5 19.375 10.5ZM31.25 18H27.1875V20.8125H31.25V18ZM31.25 22.0625H27.1875V25.1875H31.25V22.0625ZM31.25 26.4375H27.1875V29.25H30C30.6641 29.25 31.25 28.7031 31.25 28V26.4375ZM25.9375 25.1875V22.0625H21.5625V25.1875H25.9375ZM21.5625 26.4375V29.25H25.9375V26.4375H21.5625ZM20.3125 25.1875V22.0625H16.25V25.1875H20.3125ZM16.25 26.4375V28C16.25 28.7031 16.7969 29.25 17.5 29.25H20.3125V26.4375H16.25ZM16.25 20.8125H20.3125V18H16.25V20.8125ZM21.5625 20.8125H25.9375V18H21.5625V20.8125ZM30 14.25H17.5C16.7969 14.25 16.25 14.8359 16.25 15.5V16.75H31.25V15.5C31.25 14.8359 30.6641 14.25 30 14.25Z" fill="white"/>
</svg>
