<svg width="48" height="40" viewBox="0 0 48 40" fill="none" xmlns="http://www.w3.org/2000/svg">
<path d="M28.2578 15.8125C27.7109 16.0859 27.0469 15.8906 26.6953 15.4219C25.6797 13.9766 24 13 22.125 13C19.0781 13 16.6172 15.3828 16.5 18.3906C16.4609 18.8984 16.1484 19.3281 15.6406 19.5234C13.9609 20.1094 12.75 21.75 12.75 23.625C12.75 26.0469 14.7031 28 17.125 28H31.5C33.5703 28 35.25 26.3203 35.25 24.25C35.25 22.8438 34.4297 21.5938 33.2188 20.9688C32.7109 20.6562 32.4375 20.0703 32.6328 19.4844C32.6719 19.2109 32.75 18.9375 32.75 18.625C32.75 16.9062 31.3438 15.5 29.625 15.5C29.1172 15.5 28.6875 15.6172 28.2578 15.8125ZM27.75 14.6797C28.2969 14.4062 28.9219 14.25 29.625 14.25C32.0078 14.25 34 16.2422 34 18.625C34 19.0547 33.9219 19.4453 33.8047 19.8359C35.4062 20.6953 36.5 22.3359 36.5 24.25C36.5 27.0234 34.2344 29.25 31.5 29.25H17.125C14 29.25 11.5 26.75 11.5 23.625C11.5 21.2031 13.0625 19.0938 15.25 18.3516C15.4062 14.6797 18.4141 11.75 22.125 11.75C24.4297 11.75 26.5 12.9219 27.75 14.6797Z" fill="white"/>
</svg>
