<svg width="48" height="40" viewBox="0 0 48 40" fill="none" xmlns="http://www.w3.org/2000/svg">
<path d="M15.25 13.625C15.25 14.3281 15.6016 14.9141 16.1875 15.2656C16.7344 15.6172 17.4766 15.6172 18.0625 15.2656C18.6094 14.9141 19 14.3281 19 13.625C19 12.9609 18.6094 12.375 18.0625 12.0234C17.4766 11.6719 16.7344 11.6719 16.1875 12.0234C15.6016 12.375 15.25 12.9609 15.25 13.625ZM20.25 13.625C20.25 14.7578 19.625 15.7734 18.6875 16.3594C17.7109 16.9062 16.5 16.9062 15.5625 16.3594C14.5859 15.7734 14 14.7578 14 13.625C14 12.5312 14.5859 11.5156 15.5625 10.9297C16.5 10.3828 17.7109 10.3828 18.6875 10.9297C19.625 11.5156 20.25 12.5312 20.25 13.625ZM24 16.75C23.1016 16.75 22.2812 17.2578 21.8125 18C21.3828 18.7812 21.3828 19.7578 21.8125 20.5C22.2812 21.2812 23.1016 21.75 24 21.75C24.8594 21.75 25.6797 21.2812 26.1484 20.5C26.5781 19.7578 26.5781 18.7812 26.1484 18C25.6797 17.2578 24.8594 16.75 24 16.75ZM24 23C22.6328 23 21.4219 22.2969 20.7188 21.125C20.0547 19.9922 20.0547 18.5469 20.7188 17.375C21.4219 16.2422 22.6328 15.5 24 15.5C25.3281 15.5 26.5391 16.2422 27.2422 17.375C27.9062 18.5469 27.9062 19.9922 27.2422 21.125C26.5391 22.2969 25.3281 23 24 23ZM21.6953 25.5C19.5859 25.5 17.8281 27.1797 17.75 29.25H30.2109C30.1328 27.1797 28.375 25.5 26.2656 25.5H21.6953ZM21.6953 24.25H26.2656C29.1562 24.25 31.5 26.5938 31.5 29.4844C31.5 30.0703 31.0312 30.5 30.4453 30.5H17.5156C16.9297 30.5 16.5 30.0312 16.5 29.4844C16.5 26.5938 18.8047 24.25 21.6953 24.25ZM31.5 11.75C30.7969 11.75 30.2109 12.1406 29.8594 12.6875C29.5078 13.2734 29.5078 14.0156 29.8594 14.5625C30.2109 15.1484 30.7969 15.5 31.5 15.5C32.1641 15.5 32.75 15.1484 33.1016 14.5625C33.4531 14.0156 33.4531 13.2734 33.1016 12.6875C32.75 12.1406 32.1641 11.75 31.5 11.75ZM31.5 16.75C30.3672 16.75 29.3516 16.1641 28.7656 15.1875C28.2188 14.25 28.2188 13.0391 28.7656 12.0625C29.3516 11.125 30.3672 10.5 31.5 10.5C32.5938 10.5 33.6094 11.125 34.1953 12.0625C34.7422 13.0391 34.7422 14.25 34.1953 15.1875C33.6094 16.1641 32.5938 16.75 31.5 16.75ZM32.125 19.25H29C29 18.8203 28.9219 18.4297 28.8438 18H32.125C34.5078 18 36.5 19.9922 36.5 22.375C36.5 22.7266 36.1875 23 35.875 23C35.5234 23 35.25 22.7266 35.25 22.375C35.25 20.6562 33.8438 19.25 32.125 19.25ZM19 19.25H15.875C14.1172 19.25 12.75 20.6562 12.75 22.375C12.75 22.7266 12.4375 23 12.125 23C11.7734 23 11.5 22.7266 11.5 22.375C11.5 19.9922 13.4531 18 15.875 18H19.1562C19.0391 18.4297 19 18.8203 19 19.25Z" fill="white"/>
</svg>
