<svg width="812" height="827" viewBox="0 0 812 827" fill="none" xmlns="http://www.w3.org/2000/svg">
<g clip-path="url(#clip0_44_707)">
<path d="M811.36 479.91L811.16 302.61C811.15 293.27 800.17 288.26 793.11 294.37C748.66 332.84 704.22 371.3 659.77 409.77C659.79 409.77 659.8 409.79 659.82 409.8C641.45 423.08 626.46 442.96 621.51 474.4C618.02 496.54 622.24 519.45 634.38 538.29C669.85 593.36 743.93 597.63 785.7 553.26C801.02 536.99 809.47 516.77 811.31 496.11C811.33 496.12 811.36 496.14 811.38 496.15C811.38 495.94 811.38 495.73 811.38 495.52C811.81 490.33 811.77 485.12 811.36 479.93V479.91Z" fill="white"/>
<path d="M298.11 0C290.66 0 284.55 5.75 283.9 13.18C281.93 35.84 278.6 58.39 273.75 80.51C265.89 116.32 257.47 137.02 251.32 152.13C247.57 161.35 246.6 163.91 245.81 167.88C245.3 170.42 245.02 171.89 245.53 174.07C247 180.31 252.86 184.54 259.27 184.54H434.33C446.99 184.54 459.23 179.99 468.82 171.73L639.09 25.06C649.11 16.43 643.01 0 629.79 0H298.11Z" fill="white"/>
<path d="M808.63 6.01C804.99 1.37 798.85 0.29 795.07 0C785.91 0 776.76 0 767.6 0C766.19 0 764.67 0.09 763.06 0.36C754.66 1.78 748.97 7 746.21 10C581.73 151.87 417.25 293.74 252.77 435.62C245.64 441.77 243.39 451.88 247.35 460.43C253.03 472.71 258.6 486.8 263.34 502.62C270.14 525.33 273.65 546.28 275.34 564.31C276.36 575.16 285.51 583.4 296.4 583.4H351.61C358.25 583.4 364.67 581.03 369.72 576.71C513.19 453.99 656.65 331.28 800.12 208.56C807.37 202.36 811.54 193.3 811.54 183.77C811.55 127.41 811.57 71.05 811.58 14.69C811.58 12.53 811.01 9.05 808.62 6L808.63 6.01Z" fill="white"/>
<path d="M225.02 327.79C225.89 267.44 205.98 228.26 192.8 202.33C186.947 190.803 184.417 183.06 185.21 179.1C185.99 175.18 186.95 172.64 190.66 163.5C196.76 148.51 205.12 127.99 212.91 92.46C218.48 67.06 222.14 41.13 223.93 15.14C224.49 6.97 218.09 0 209.9 0H52.9199C45.7399 0 39.6699 5.41 38.9699 12.56C37.6499 26.13 35.5599 39.63 32.6499 52.92C28.2399 73.02 24.2999 82.71 19.7399 93.92C14.7499 106.17 8.54992 121.42 4.24992 142.89C-9.50008 211.58 13.2399 256.33 28.2799 285.94C37.7199 304.52 40.6999 311.07 40.4999 325.15C40.3099 338.32 37.5499 343.54 29.3799 359.04C15.7999 384.77 -6.93008 427.83 3.90992 494.3C7.68992 517.52 13.9999 534.4 19.0599 547.96C23.7299 560.45 27.7499 571.24 31.3999 592.14C34.0799 607.5 35.6299 623.21 36.0199 638.96C36.0699 640.95 36.1499 645.31 36.0899 650.74C35.9699 661.04 35.2799 671.59 34.0999 682.28C33.1699 690.62 39.6299 697.94 48.0299 697.94H205.12C212.5 697.94 218.58 692.23 219.15 684.87C219.98 674.17 220.49 663.53 220.62 653.02C220.72 645.02 220.61 638.36 220.51 634.3C219.9 609.59 217.45 584.74 213.2 560.42C206.62 522.68 198.14 499.97 191.95 483.39C188.21 473.39 186.88 469.67 186.05 464.6C185.49 461.16 185.58 459.62 185.55 459.62C186.15 457.35 189.88 450.31 192.59 445.16C205.18 421.3 224.21 385.26 225.03 327.79H225.02Z" fill="white"/>
<path d="M293.23 641.91C286.66 641.91 281.32 647.19 281.24 653.76C281.04 669.77 280.05 686.68 278.29 704.05L274.78 738.76C273.64 750.02 264.17 758.58 252.85 758.58H46.9401C37.4801 758.58 29.8201 766.25 29.8201 775.7V809.98C29.8201 819.08 37.1901 826.45 46.2901 826.45H791.91C802.83 826.45 811.68 817.6 811.68 806.68V661.22C811.68 650.55 803.03 641.91 792.37 641.91H293.23Z" fill="white"/>
</g>
<defs>
<clipPath id="clip0_44_707">
<rect width="811.68" height="826.45" fill="white"/>
</clipPath>
</defs>
</svg>
