<svg width="1225" height="197" viewBox="0 0 1225 197" fill="none" xmlns="http://www.w3.org/2000/svg">
<g clip-path="url(#clip0_44_703)">
<path d="M45.43 0H0V132.02H123.23V91.54H45.43V0Z" fill="#FFFEFA"/>
<path d="M184.31 0L126.39 132.02H174.79L183.83 109.84H245.34L254.37 132.02H302.78L244.86 0H184.31ZM198.53 73.75L214.59 34.33L230.65 73.75H198.54H198.53Z" fill="#FFFEFA"/>
<path d="M414.61 86.09L383.05 0H312.81V132.02H355.94V39.82L392.03 132.02H436.91L472.99 39.38V132.02H516.13V0H445.89L414.61 86.09Z" fill="#FFFEFA"/>
<path d="M584.07 0L526.15 132.02H574.56L583.59 109.84H645.1L654.13 132.02H702.54L644.63 0H584.08H584.07ZM598.29 73.75L614.35 34.33L630.41 73.75H598.3H598.29Z" fill="#FFFEFA"/>
<path d="M823.03 82.56C830.95 78.92 837.11 73.79 841.51 67.16C845.91 60.53 848.11 52.87 848.11 44.19C848.11 35.51 845.9 27.52 841.51 20.95C837.11 14.37 830.95 9.24 823.03 5.54C815.11 1.85 805.87 0 795.31 0H712.57V132.02H758V88.01H771.51L801.48 132.02H853.41L819.33 83.99C820.58 83.53 821.85 83.1 823.04 82.56H823.03ZM758 31.86H788.27C792.73 31.86 796.19 32.92 798.66 35.03C801.12 37.14 802.35 40.19 802.35 44.18C802.35 48.17 801.12 51.22 798.66 53.33C796.19 55.44 792.73 56.5 788.27 56.5H758V31.85V31.86Z" fill="#FFFEFA"/>
<path d="M955.67 132.02H1007.6L973.52 83.99C974.77 83.53 976.04 83.1 977.23 82.56C985.15 78.92 991.31 73.79 995.71 67.16C1000.11 60.53 1002.31 52.87 1002.31 44.19C1002.31 35.51 1000.1 27.52 995.71 20.95C991.31 14.37 985.15 9.24 977.23 5.54C969.31 1.85 960.07 0 949.51 0H866.77V132.02H912.2V88.01H925.71L955.68 132.02H955.67ZM912.2 31.86H942.47C946.93 31.86 950.39 32.92 952.86 35.03C955.32 37.14 956.55 40.19 956.55 44.18C956.55 48.17 955.32 51.22 952.86 53.33C950.4 55.44 946.93 56.5 942.47 56.5H912.2V31.85V31.86Z" fill="#FFFEFA"/>
<path d="M343.68 157.3V187.05L341.92 185.33H365.75V188.82H339.78V157.31H343.69L343.68 157.3Z" fill="#FFFEFA"/>
<path d="M363.89 167.38L366.83 160.87L367 162.26C366.52 162.26 366.08 162.14 365.68 161.9C365.28 161.66 364.95 161.34 364.71 160.93C364.47 160.52 364.35 160.08 364.35 159.61C364.35 159.14 364.47 158.7 364.71 158.31C364.95 157.92 365.27 157.6 365.68 157.36C366.09 157.12 366.53 157 367 157C367.5 157 367.96 157.12 368.37 157.36C368.78 157.6 369.1 157.92 369.34 158.33C369.58 158.74 369.7 159.22 369.7 159.78C369.7 160.28 369.6 160.82 369.41 161.4C369.21 161.98 368.84 162.75 368.28 163.73L366.22 167.39H363.91L363.89 167.38Z" fill="#FFFEFA"/>
<path d="M374.52 156.46H378.34V188.81H374.52V156.46ZM388.13 164.61C390.34 164.61 392.22 165.05 393.76 165.93C395.3 166.81 396.48 168.09 397.29 169.75C398.1 171.42 398.51 173.44 398.51 175.82V188.8H394.64V176.45C394.64 173.62 393.99 171.49 392.69 170.04C391.39 168.6 389.49 167.88 387 167.88C385.26 167.88 383.74 168.27 382.44 169.06C381.14 169.85 380.13 170.93 379.41 172.32C378.7 173.71 378.34 175.32 378.34 177.17L376.79 176.08C376.99 173.73 377.59 171.7 378.6 169.99C379.61 168.28 380.93 166.96 382.57 166.02C384.21 165.08 386.06 164.61 388.14 164.61H388.13Z" fill="#FFFEFA"/>
<path d="M414.23 189.36C412.07 189.36 410.24 188.92 408.75 188.04C407.25 187.16 406.1 185.88 405.3 184.22C404.5 182.55 404.1 180.53 404.1 178.15V165.17H407.92V177.52C407.92 180.32 408.56 182.45 409.83 183.91C411.1 185.37 412.95 186.09 415.36 186.09C417.07 186.09 418.55 185.71 419.81 184.93C421.07 184.15 422.05 183.07 422.75 181.67C423.45 180.27 423.8 178.64 423.8 176.8L425.31 177.64C425.14 180.02 424.56 182.09 423.57 183.86C422.58 185.63 421.28 186.98 419.68 187.94C418.08 188.89 416.26 189.37 414.22 189.37L414.23 189.36ZM425.11 188.81L423.81 180.78V165.15H427.63V181.37L428.97 188.81H425.1H425.11Z" fill="#FFFEFA"/>
<path d="M433.09 165.16H436.91L438.25 173.19V188.82H434.43V172.64L433.09 165.16ZM447.3 164.61C449.34 164.61 451.09 165.05 452.53 165.93C453.97 166.81 455.07 168.09 455.81 169.75C456.55 171.42 456.92 173.44 456.92 175.82V188.8H453.1V176.45C453.1 173.62 452.51 171.49 451.33 170.04C450.15 168.6 448.43 167.88 446.16 167.88C444.56 167.88 443.18 168.27 442 169.06C440.82 169.84 439.91 170.93 439.25 172.32C438.59 173.71 438.26 175.32 438.26 177.17L436.71 176.08C436.91 173.73 437.47 171.7 438.41 169.99C439.35 168.28 440.58 166.96 442.11 166.02C443.64 165.08 445.37 164.61 447.3 164.61ZM465.95 164.61C467.99 164.61 469.74 165.05 471.18 165.93C472.62 166.81 473.72 168.09 474.46 169.75C475.2 171.42 475.57 173.44 475.57 175.82V188.8H471.75V176.45C471.75 173.62 471.16 171.49 469.99 170.04C468.81 168.6 467.09 167.88 464.82 167.88C463.22 167.88 461.84 168.27 460.66 169.06C459.48 169.84 458.57 170.93 457.91 172.32C457.25 173.71 456.92 175.32 456.92 177.17L455.37 176.08C455.57 173.73 456.13 171.7 457.07 169.99C458.01 168.28 459.24 166.96 460.77 166.02C462.3 165.08 464.03 164.61 465.96 164.61H465.95Z" fill="#FFFEFA"/>
<path d="M505.53 177.01C504.91 179.48 503.97 181.63 502.69 183.48C501.41 185.33 499.87 186.77 498.07 187.81C496.26 188.85 494.27 189.36 492.08 189.36C489.75 189.36 487.7 188.84 485.9 187.78C484.11 186.73 482.7 185.28 481.68 183.43C480.66 181.58 480.15 179.44 480.15 177C480.15 174.56 480.66 172.38 481.68 170.53C482.7 168.68 484.11 167.23 485.9 166.18C487.69 165.13 489.75 164.6 492.08 164.6C494.27 164.6 496.26 165.12 498.07 166.15C499.88 167.19 501.42 168.63 502.71 170.48C504 172.33 504.94 174.5 505.53 176.99V177.01ZM484.11 177.01C484.11 178.8 484.48 180.39 485.22 181.76C485.96 183.13 486.98 184.2 488.27 184.97C489.56 185.74 491.04 186.13 492.72 186.13C494.4 186.13 495.95 185.75 497.36 184.97C498.77 184.2 500.03 183.13 501.14 181.76C502.25 180.39 503.15 178.8 503.85 177.01C503.15 175.19 502.25 173.59 501.14 172.22C500.03 170.85 498.77 169.78 497.36 169.01C495.94 168.24 494.4 167.85 492.72 167.85C491.04 167.85 489.55 168.24 488.27 169.01C486.98 169.78 485.97 170.85 485.22 172.22C484.48 173.59 484.11 175.19 484.11 177.01ZM504.02 188.81L503.18 179.86L504.23 177L503.18 174.1L504.02 165.15H507.97L506.84 177L507.97 188.81H504.02Z" fill="#FFFEFA"/>
<path d="M515.62 161.59C514.81 161.59 514.14 161.34 513.6 160.85C513.06 160.36 512.8 159.75 512.8 159.02C512.8 158.29 513.07 157.64 513.6 157.15C514.13 156.66 514.8 156.41 515.62 156.41C516.44 156.41 517.15 156.66 517.68 157.15C518.21 157.64 518.48 158.26 518.48 159.02C518.48 159.78 518.21 160.36 517.68 160.85C517.15 161.34 516.46 161.59 515.62 161.59ZM513.73 165.07L515.62 165.41L517.55 165.07V188.81H513.73V165.07Z" fill="#FFFEFA"/>
<path d="M522.76 165.16H526.58L527.92 173.19V188.82H524.1V172.64L522.76 165.16ZM537.72 164.61C539.93 164.61 541.81 165.05 543.35 165.93C544.89 166.81 546.07 168.09 546.88 169.75C547.69 171.42 548.1 173.44 548.1 175.82V188.8H544.28V176.45C544.28 173.62 543.63 171.49 542.33 170.04C541.03 168.6 539.12 167.88 536.59 167.88C534.85 167.88 533.33 168.27 532.03 169.06C530.73 169.85 529.72 170.93 529 172.32C528.29 173.71 527.93 175.32 527.93 177.17L526.38 176.08C526.58 173.73 527.18 171.7 528.19 169.99C529.2 168.28 530.52 166.96 532.16 166.02C533.8 165.08 535.65 164.61 537.73 164.61H537.72Z" fill="#FFFEFA"/>
<path d="M589.66 177.01C589.04 179.48 588.1 181.63 586.82 183.48C585.54 185.33 584 186.77 582.2 187.81C580.39 188.85 578.4 189.36 576.21 189.36C573.88 189.36 571.83 188.84 570.03 187.78C568.24 186.73 566.83 185.28 565.81 183.43C564.79 181.58 564.28 179.44 564.28 177C564.28 174.56 564.79 172.38 565.81 170.53C566.83 168.68 568.24 167.23 570.03 166.18C571.82 165.13 573.88 164.6 576.21 164.6C578.4 164.6 580.39 165.12 582.2 166.15C584.01 167.19 585.55 168.63 586.84 170.48C588.13 172.33 589.07 174.5 589.66 176.99V177.01ZM568.23 177.01C568.23 178.8 568.6 180.39 569.34 181.76C570.08 183.13 571.1 184.2 572.39 184.97C573.68 185.74 575.16 186.13 576.84 186.13C578.52 186.13 580.07 185.75 581.48 184.97C582.89 184.2 584.15 183.13 585.26 181.76C586.37 180.39 587.27 178.8 587.97 177.01C587.27 175.19 586.37 173.59 585.26 172.22C584.15 170.85 582.89 169.78 581.48 169.01C580.06 168.24 578.52 167.85 576.84 167.85C575.16 167.85 573.67 168.24 572.39 169.01C571.1 169.78 570.09 170.85 569.34 172.22C568.6 173.59 568.23 175.19 568.23 177.01ZM588.14 188.81L587.3 179.86L588.35 177L587.3 174.1L588.14 165.15H592.09L590.96 177L592.09 188.81H588.14Z" fill="#FFFEFA"/>
<path d="M607.64 189.36C605.48 189.36 603.65 188.92 602.16 188.04C600.66 187.16 599.51 185.88 598.71 184.22C597.91 182.55 597.51 180.53 597.51 178.15V165.17H601.33V177.52C601.33 180.32 601.97 182.45 603.24 183.91C604.51 185.37 606.36 186.09 608.77 186.09C610.48 186.09 611.96 185.71 613.22 184.93C614.48 184.15 615.46 183.07 616.16 181.67C616.86 180.27 617.21 178.64 617.21 176.8L618.72 177.64C618.55 180.02 617.97 182.09 616.98 183.86C615.99 185.63 614.69 186.98 613.09 187.94C611.49 188.89 609.67 189.37 607.63 189.37L607.64 189.36ZM618.52 188.81L617.22 180.78V165.15H621.04V181.37L622.38 188.81H618.51H618.52Z" fill="#FFFEFA"/>
<path d="M664.28 179.82C663.97 181.7 663.21 183.36 661.99 184.8C660.77 186.24 659.23 187.36 657.37 188.16C655.51 188.96 653.43 189.36 651.13 189.36C648.5 189.36 646.18 188.84 644.18 187.78C642.18 186.73 640.61 185.28 639.47 183.43C638.34 181.58 637.77 179.44 637.77 177C637.77 174.56 638.34 172.38 639.47 170.53C640.6 168.68 642.17 167.23 644.18 166.18C646.18 165.13 648.5 164.6 651.13 164.6C653.43 164.6 655.51 165.01 657.37 165.82C659.23 166.63 660.77 167.75 661.99 169.16C663.21 170.58 663.97 172.24 664.28 174.14H660.33C659.91 172.18 658.87 170.63 657.2 169.5C655.53 168.37 653.51 167.8 651.13 167.8C649.22 167.8 647.56 168.18 646.15 168.93C644.73 169.69 643.64 170.74 642.87 172.1C642.1 173.46 641.71 175.09 641.71 177C641.71 178.91 642.09 180.46 642.87 181.83C643.64 183.2 644.73 184.27 646.15 185.02C647.56 185.78 649.22 186.15 651.13 186.15C653.54 186.15 655.58 185.58 657.24 184.43C658.91 183.28 659.94 181.74 660.33 179.81H664.28V179.82Z" fill="#FFFEFA"/>
<path d="M681.42 189.36C678.65 189.36 676.21 188.84 674.11 187.81C672.01 186.77 670.37 185.32 669.19 183.46C668.01 181.6 667.43 179.45 667.43 177.01C667.43 174.57 668.02 172.39 669.19 170.54C670.37 168.69 672.01 167.24 674.11 166.19C676.21 165.14 678.65 164.61 681.42 164.61C684.19 164.61 686.68 165.14 688.8 166.19C690.91 167.24 692.56 168.69 693.74 170.54C694.92 172.39 695.5 174.55 695.5 177.01C695.5 179.47 694.91 181.6 693.74 183.46C692.56 185.32 690.92 186.77 688.8 187.81C686.68 188.85 684.23 189.36 681.42 189.36ZM681.47 186.17C683.54 186.17 685.34 185.79 686.85 185.04C688.36 184.28 689.53 183.22 690.36 181.85C691.19 180.48 691.6 178.85 691.6 176.98C691.6 175.11 691.19 173.52 690.36 172.15C689.53 170.78 688.36 169.71 686.85 168.96C685.34 168.2 683.54 167.83 681.47 167.83C679.4 167.83 677.64 168.21 676.11 168.96C674.58 169.72 673.41 170.78 672.58 172.15C671.75 173.52 671.34 175.13 671.34 176.98C671.34 178.83 671.75 180.48 672.58 181.85C673.41 183.22 674.58 184.29 676.11 185.04C677.64 185.8 679.42 186.17 681.47 186.17Z" fill="#FFFEFA"/>
<path d="M712.86 189.36C710.14 189.36 707.74 188.84 705.65 187.78C703.56 186.72 701.92 185.28 700.73 183.43C699.54 181.58 698.94 179.43 698.94 176.96C698.94 174.49 699.5 172.38 700.62 170.53C701.74 168.68 703.29 167.23 705.26 166.18C707.23 165.13 709.52 164.6 712.13 164.6C714.74 164.6 716.9 165.16 718.79 166.28C720.68 167.4 722.15 168.98 723.2 171.01C724.25 173.04 724.78 175.4 724.78 178.09H701.84V175.02H723.19L720.92 176.45C720.84 174.66 720.42 173.12 719.66 171.83C718.9 170.54 717.88 169.55 716.59 168.85C715.3 168.15 713.79 167.8 712.05 167.8C710.2 167.8 708.59 168.17 707.22 168.91C705.85 169.65 704.78 170.7 704.03 172.04C703.27 173.38 702.9 174.97 702.9 176.79C702.9 178.61 703.33 180.35 704.18 181.75C705.03 183.15 706.25 184.24 707.81 185.01C709.38 185.78 711.23 186.17 713.36 186.17C715.32 186.17 717.23 185.84 719.1 185.18C720.96 184.52 722.64 183.63 724.12 182.51V185.54C722.66 186.72 720.92 187.65 718.89 188.33C716.86 189.02 714.85 189.36 712.86 189.36Z" fill="#FFFEFA"/>
<path d="M739.41 189.36C737.25 189.36 735.42 188.92 733.93 188.04C732.43 187.16 731.28 185.88 730.48 184.22C729.68 182.55 729.28 180.53 729.28 178.15V165.17H733.1V177.52C733.1 180.32 733.74 182.45 735.01 183.91C736.28 185.37 738.13 186.09 740.54 186.09C742.25 186.09 743.73 185.71 744.99 184.93C746.25 184.15 747.23 183.07 747.93 181.67C748.63 180.27 748.98 178.64 748.98 176.8L750.49 177.64C750.32 180.02 749.74 182.09 748.75 183.86C747.76 185.63 746.46 186.98 744.86 187.94C743.26 188.89 741.44 189.37 739.4 189.37L739.41 189.36ZM750.29 188.81L748.99 180.78V165.15H752.81V181.37L754.15 188.81H750.28H750.29Z" fill="#FFFEFA"/>
<path d="M758.28 165.16H762.1L763.44 173.23V188.82H759.62V172.52L758.28 165.17V165.16ZM776.05 165.07V168.56C775.52 168.39 774.89 168.27 774.18 168.18C773.47 168.1 772.77 168.05 772.1 168.05C770.42 168.05 768.93 168.43 767.62 169.18C766.32 169.94 765.29 171.04 764.55 172.48C763.81 173.92 763.44 175.62 763.44 177.59L762.35 176.08C762.41 174.43 762.68 172.9 763.17 171.5C763.66 170.1 764.35 168.89 765.23 167.87C766.11 166.85 767.17 166.05 768.4 165.47C769.63 164.9 771.03 164.61 772.6 164.61C773.22 164.61 773.84 164.65 774.47 164.74C775.1 164.82 775.63 164.94 776.05 165.08V165.07Z" fill="#FFFEFA"/>
<path d="M813.99 177.01C813.37 179.48 812.43 181.63 811.15 183.48C809.87 185.33 808.33 186.77 806.53 187.81C804.72 188.85 802.73 189.36 800.54 189.36C798.21 189.36 796.16 188.84 794.36 187.78C792.57 186.73 791.16 185.28 790.14 183.43C789.12 181.58 788.61 179.44 788.61 177C788.61 174.56 789.12 172.38 790.14 170.53C791.16 168.68 792.57 167.23 794.36 166.18C796.15 165.13 798.21 164.6 800.54 164.6C802.73 164.6 804.72 165.12 806.53 166.15C808.34 167.19 809.88 168.63 811.17 170.48C812.46 172.33 813.4 174.5 813.99 176.99V177.01ZM792.57 177.01C792.57 178.8 792.94 180.39 793.68 181.76C794.42 183.13 795.44 184.2 796.73 184.97C798.02 185.74 799.5 186.13 801.18 186.13C802.86 186.13 804.41 185.75 805.82 184.97C807.23 184.2 808.49 183.13 809.6 181.76C810.71 180.39 811.61 178.8 812.31 177.01C811.61 175.19 810.71 173.59 809.6 172.22C808.49 170.85 807.23 169.78 805.82 169.01C804.4 168.24 802.86 167.85 801.18 167.85C799.5 167.85 798.01 168.24 796.73 169.01C795.44 169.78 794.43 170.85 793.68 172.22C792.94 173.59 792.57 175.19 792.57 177.01ZM812.52 188.81L811.68 179.78L812.81 177.01L811.76 174.03L813.4 156.47H817.31L815.34 176.85L816.43 188.83H812.52V188.81Z" fill="#FFFEFA"/>
<path d="M832.02 189.36C829.86 189.36 828.03 188.92 826.54 188.04C825.04 187.16 823.89 185.88 823.09 184.22C822.29 182.55 821.89 180.53 821.89 178.15V165.17H825.71V177.52C825.71 180.32 826.35 182.45 827.62 183.91C828.89 185.37 830.74 186.09 833.15 186.09C834.86 186.09 836.34 185.71 837.6 184.93C838.86 184.15 839.84 183.07 840.54 181.67C841.24 180.27 841.59 178.64 841.59 176.8L843.1 177.64C842.93 180.02 842.35 182.09 841.36 183.86C840.37 185.63 839.07 186.98 837.47 187.94C835.87 188.89 834.05 189.37 832.01 189.37L832.02 189.36ZM842.9 188.81L841.6 180.78V165.15H845.42V181.37L846.76 188.81H842.89H842.9Z" fill="#FFFEFA"/>
<path d="M887.57 177.01C886.95 179.48 886.01 181.63 884.73 183.48C883.45 185.33 881.91 186.77 880.11 187.81C878.3 188.85 876.31 189.36 874.12 189.36C871.79 189.36 869.74 188.84 867.94 187.78C866.15 186.73 864.74 185.28 863.72 183.43C862.7 181.58 862.19 179.44 862.19 177C862.19 174.56 862.7 172.38 863.72 170.53C864.74 168.68 866.15 167.23 867.94 166.18C869.73 165.13 871.79 164.6 874.12 164.6C876.31 164.6 878.3 165.12 880.11 166.15C881.92 167.19 883.46 168.63 884.75 170.48C886.04 172.33 886.98 174.5 887.57 176.99V177.01ZM866.14 177.01C866.14 178.8 866.51 180.39 867.25 181.76C867.99 183.13 869.01 184.2 870.3 184.97C871.59 185.74 873.07 186.13 874.75 186.13C876.43 186.13 877.98 185.75 879.39 184.97C880.8 184.2 882.06 183.13 883.17 181.76C884.28 180.39 885.18 178.8 885.88 177.01C885.18 175.19 884.28 173.59 883.17 172.22C882.06 170.85 880.8 169.78 879.39 169.01C877.97 168.24 876.43 167.85 874.75 167.85C873.07 167.85 871.58 168.24 870.3 169.01C869.01 169.78 868 170.85 867.25 172.22C866.51 173.59 866.14 175.19 866.14 177.01ZM886.1 188.81L885.26 179.78L886.39 177.01L885.34 174.03L886.98 156.47H890.89L888.92 176.85L890.01 188.83H886.1V188.81Z" fill="#FFFEFA"/>
<path d="M897.69 161.59C896.88 161.59 896.21 161.34 895.67 160.85C895.13 160.36 894.87 159.75 894.87 159.02C894.87 158.29 895.14 157.64 895.67 157.15C896.2 156.66 896.87 156.41 897.69 156.41C898.51 156.41 899.22 156.66 899.75 157.15C900.28 157.64 900.55 158.26 900.55 159.02C900.55 159.78 900.28 160.36 899.75 160.85C899.22 161.34 898.53 161.59 897.69 161.59ZM895.8 165.07L897.69 165.41L899.62 165.07V188.81H895.8V165.07Z" fill="#FFFEFA"/>
<path d="M915.93 187.3C913.8 187.3 911.88 186.83 910.15 185.89C908.43 184.95 907.06 183.63 906.05 181.92C905.04 180.21 904.54 178.22 904.54 175.95C904.54 173.68 905.04 171.7 906.05 170C907.06 168.31 908.42 166.98 910.15 166.03C911.87 165.08 913.8 164.6 915.93 164.6C917.53 164.6 919.01 164.85 920.38 165.34C921.75 165.83 923 166.49 924.12 167.31C925.24 168.14 926.19 169.05 926.98 170.04C927.76 171.04 928.37 172.05 928.81 173.09C929.24 174.13 929.46 175.09 929.46 175.99C929.46 177.11 929.13 178.33 928.47 179.65C927.81 180.97 926.87 182.21 925.65 183.37C924.43 184.53 923 185.48 921.36 186.21C919.72 186.94 917.91 187.3 915.92 187.3H915.93ZM927.95 183.1V178.81L928.12 178.18V174.27L927.95 173.43V165.15H931.77V182.5C931.77 185.61 931.15 188.19 929.92 190.23C928.69 192.27 927 193.79 924.86 194.79C922.72 195.78 920.3 196.28 917.61 196.28C915.54 196.28 913.63 195.99 911.9 195.42C910.16 194.85 908.5 193.97 906.9 192.79V189.43C908.58 190.77 910.31 191.72 912.09 192.27C913.87 192.82 915.63 193.09 917.36 193.09C920.81 193.09 923.43 192.2 925.24 190.42C927.05 188.64 927.95 186.2 927.95 183.09V183.1ZM916.94 184.23C919.13 184.23 921.15 183.58 923.01 182.28C924.87 180.98 926.57 178.87 928.12 175.96C926.61 172.99 924.91 170.87 923.04 169.59C921.17 168.31 919.13 167.68 916.95 167.68C915.13 167.68 913.59 168.04 912.33 168.75C911.07 169.46 910.11 170.44 909.45 171.67C908.79 172.9 908.46 174.33 908.46 175.96C908.46 177.59 908.79 178.98 909.45 180.23C910.11 181.48 911.07 182.46 912.33 183.17C913.59 183.88 915.13 184.24 916.95 184.24L916.94 184.23Z" fill="#FFFEFA"/>
<path d="M939.84 161.59C939.03 161.59 938.36 161.34 937.82 160.85C937.28 160.36 937.02 159.75 937.02 159.02C937.02 158.29 937.29 157.64 937.82 157.15C938.35 156.66 939.02 156.41 939.84 156.41C940.66 156.41 941.37 156.66 941.9 157.15C942.43 157.64 942.7 158.26 942.7 159.02C942.7 159.78 942.43 160.36 941.9 160.85C941.37 161.34 940.68 161.59 939.84 161.59ZM937.95 165.07L939.84 165.41L941.77 165.07V188.81H937.95V165.07Z" fill="#FFFEFA"/>
<path d="M945.09 168.27V166.42L950.3 165.45L951.81 159.06H954.12V165.15H965.68V168.26H954.12V180.28C954.12 182.41 954.59 183.9 955.53 184.76C956.47 185.61 957.93 186.04 959.92 186.04C961.18 186.04 962.3 185.89 963.28 185.58C964.26 185.27 965.2 184.82 966.1 184.24V187.64C965.43 188.06 964.44 188.45 963.14 188.82C961.84 189.18 960.5 189.37 959.13 189.37C956.97 189.37 955.25 189.01 953.96 188.28C952.67 187.55 951.74 186.54 951.17 185.25C950.59 183.96 950.31 182.52 950.31 180.92V168.27H945.1H945.09Z" fill="#FFFEFA"/>
<path d="M993.42 177.01C992.8 179.48 991.86 181.63 990.58 183.48C989.3 185.33 987.76 186.77 985.96 187.81C984.15 188.85 982.16 189.36 979.97 189.36C977.64 189.36 975.59 188.84 973.79 187.78C972 186.73 970.59 185.28 969.57 183.43C968.55 181.58 968.04 179.44 968.04 177C968.04 174.56 968.55 172.38 969.57 170.53C970.59 168.68 972 167.23 973.79 166.18C975.58 165.13 977.64 164.6 979.97 164.6C982.16 164.6 984.15 165.12 985.96 166.15C987.77 167.19 989.31 168.63 990.6 170.48C991.89 172.33 992.83 174.5 993.42 176.99V177.01ZM971.99 177.01C971.99 178.8 972.36 180.39 973.1 181.76C973.84 183.13 974.86 184.2 976.15 184.97C977.44 185.74 978.92 186.13 980.6 186.13C982.28 186.13 983.83 185.75 985.24 184.97C986.65 184.2 987.91 183.13 989.02 181.76C990.13 180.39 991.03 178.8 991.73 177.01C991.03 175.19 990.13 173.59 989.02 172.22C987.91 170.85 986.65 169.78 985.24 169.01C983.82 168.24 982.28 167.85 980.6 167.85C978.92 167.85 977.43 168.24 976.15 169.01C974.86 169.78 973.85 170.85 973.1 172.22C972.36 173.59 971.99 175.19 971.99 177.01ZM991.9 188.81L991.06 179.86L992.11 177L991.06 174.1L991.9 165.15H995.85L994.72 177L995.85 188.81H991.9Z" fill="#FFFEFA"/>
<path d="M1001.61 156.46H1005.43V188.81H1001.61V156.46Z" fill="#FFFEFA"/>
<path d="M1224.7 114.12L1224.65 72.08C1224.65 69.86 1222.04 68.68 1220.37 70.13C1209.83 79.25 1199.29 88.37 1188.75 97.49C1188.75 97.49 1188.75 97.49 1188.76 97.49C1184.4 100.64 1180.85 105.35 1179.68 112.81C1178.85 118.06 1179.85 123.49 1182.73 127.96C1191.14 141.02 1208.71 142.03 1218.61 131.51C1222.24 127.65 1224.25 122.86 1224.68 117.96C1224.68 117.96 1224.69 117.96 1224.7 117.96C1224.7 117.91 1224.7 117.86 1224.7 117.81C1224.8 116.58 1224.79 115.34 1224.7 114.11V114.12Z" fill="#BE33FF"/>
<path d="M1103 0.319946C1101.23 0.319946 1099.78 1.67995 1099.63 3.43995C1099.16 8.80995 1098.37 14.1599 1097.22 19.4099C1095.36 27.8999 1093.36 32.8099 1091.9 36.3899C1091.01 38.5799 1090.78 39.1799 1090.59 40.1299C1090.47 40.7299 1090.4 41.0799 1090.52 41.5999C1090.87 43.0799 1092.26 44.0799 1093.78 44.0799H1135.29C1138.29 44.0799 1141.19 42.9999 1143.47 41.0399L1183.84 6.25995C1186.21 4.20995 1184.77 0.319946 1181.63 0.319946H1102.98H1103Z" fill="#51ED9B"/>
<path d="M1224.06 1.73995C1223.2 0.639946 1221.74 0.379946 1220.85 0.319946C1218.68 0.319946 1216.51 0.319946 1214.34 0.319946C1214.01 0.319946 1213.64 0.339946 1213.26 0.409946C1211.27 0.749946 1209.92 1.98995 1209.27 2.69995C1170.27 36.3399 1131.26 69.9799 1092.26 103.62C1090.57 105.08 1090.04 107.47 1090.97 109.5C1092.32 112.41 1093.64 115.75 1094.76 119.51C1096.37 124.9 1097.2 129.86 1097.6 134.14C1097.84 136.71 1100.01 138.67 1102.59 138.67H1115.68C1117.25 138.67 1118.78 138.11 1119.97 137.08C1153.99 107.98 1188.01 78.8799 1222.03 49.7799C1223.75 48.3099 1224.74 46.1599 1224.74 43.8999C1224.74 30.5399 1224.74 17.1699 1224.75 3.80995C1224.75 3.29995 1224.62 2.46995 1224.05 1.74995L1224.06 1.73995Z" fill="#EA1958"/>
<path d="M1085.67 78.0499C1085.88 63.7399 1081.15 54.4499 1078.03 48.2999C1076.64 45.5666 1076.04 43.7299 1076.23 42.7899C1076.42 41.8599 1076.64 41.2599 1077.52 39.0899C1078.97 35.5399 1080.95 30.6699 1082.8 22.2399C1084.12 16.2199 1084.99 10.0699 1085.41 3.90995C1085.54 1.96995 1084.03 0.319946 1082.08 0.319946H1044.86C1043.16 0.319946 1041.72 1.59995 1041.55 3.29995C1041.24 6.51995 1040.74 9.71995 1040.05 12.8699C1039 17.6399 1038.07 19.9299 1036.99 22.5899C1035.81 25.4899 1034.34 29.1099 1033.32 34.1999C1030.06 50.4899 1035.45 61.0999 1039.02 68.1199C1041.26 72.53 1041.96 74.0799 1041.92 77.4199C1041.87 80.5399 1041.22 81.7799 1039.28 85.4599C1036.06 91.5599 1030.67 101.77 1033.24 117.53C1034.14 123.04 1035.63 127.04 1036.83 130.25C1037.94 133.21 1038.89 135.77 1039.76 140.73C1040.39 144.37 1040.76 148.1 1040.86 151.83C1040.87 152.3 1040.89 153.34 1040.88 154.62C1040.85 157.06 1040.69 159.56 1040.41 162.1C1040.19 164.08 1041.72 165.81 1043.71 165.81H1080.96C1082.71 165.81 1084.15 164.46 1084.29 162.71C1084.49 160.17 1084.61 157.65 1084.64 155.16C1084.66 153.26 1084.64 151.68 1084.61 150.72C1084.47 144.86 1083.88 138.97 1082.88 133.2C1081.32 124.25 1079.31 118.87 1077.84 114.93C1076.95 112.56 1076.64 111.68 1076.44 110.47C1076.31 109.65 1076.33 109.29 1076.32 109.29C1076.46 108.75 1077.35 107.08 1077.99 105.86C1080.98 100.2 1085.49 91.6599 1085.68 78.0299L1085.67 78.0499Z" fill="#F2F128"/>
<path d="M1101.84 152.53C1100.28 152.53 1099.01 153.78 1099 155.34C1098.95 159.14 1098.72 163.15 1098.3 167.26L1097.47 175.49C1097.2 178.16 1094.95 180.19 1092.27 180.19H1043.44C1041.2 180.19 1039.38 182.01 1039.38 184.25V192.38C1039.38 194.54 1041.13 196.29 1043.29 196.29H1220.1C1222.69 196.29 1224.79 194.19 1224.79 191.6V157.11C1224.79 154.58 1222.74 152.53 1220.21 152.53H1101.85H1101.84Z" fill="#61F3FF"/>
</g>
<defs>
<clipPath id="clip0_44_703">
<rect width="1224.8" height="196.29" fill="white"/>
</clipPath>
</defs>
</svg>
