<svg width="1225" height="197" viewBox="0 0 1225 197" fill="none" xmlns="http://www.w3.org/2000/svg">
<g clip-path="url(#clip0_44_704)">
<path d="M46.3902 0H0.970215V132.02H124.2V91.54H46.3902V0Z" fill="#FFFEFA"/>
<path d="M185.28 0L127.36 132.02H175.76L184.8 109.84H246.31L255.34 132.02H303.75L245.83 0H185.28ZM199.5 73.75L215.56 34.33L231.62 73.75H199.51H199.5Z" fill="#FFFEFA"/>
<path d="M415.58 86.09L384.02 0H313.78V132.02H356.91V39.82L393 132.02H437.88L473.96 39.38V132.02H517.1V0H446.86L415.58 86.09Z" fill="#FFFEFA"/>
<path d="M585.04 0L527.12 132.02H575.53L584.56 109.84H646.07L655.1 132.02H703.51L645.6 0H585.05H585.04ZM599.26 73.75L615.32 34.33L631.38 73.75H599.27H599.26Z" fill="#FFFEFA"/>
<path d="M824 82.56C831.92 78.92 838.08 73.79 842.48 67.16C846.88 60.53 849.08 52.87 849.08 44.19C849.08 35.51 846.87 27.52 842.48 20.95C838.08 14.37 831.92 9.24 824 5.54C816.08 1.85 806.84 0 796.28 0H713.54V132.02H758.97V88.01H772.48L802.45 132.02H854.38L820.3 83.99C821.55 83.53 822.82 83.1 824.01 82.56H824ZM758.97 31.86H789.24C793.7 31.86 797.16 32.92 799.63 35.03C802.09 37.14 803.32 40.19 803.32 44.18C803.32 48.17 802.09 51.22 799.63 53.33C797.16 55.44 793.7 56.5 789.24 56.5H758.97V31.85V31.86Z" fill="#FFFEFA"/>
<path d="M956.64 132.02H1008.57L974.49 83.99C975.74 83.53 977.01 83.1 978.2 82.56C986.12 78.92 992.28 73.79 996.68 67.16C1001.08 60.53 1003.28 52.87 1003.28 44.19C1003.28 35.51 1001.07 27.52 996.68 20.95C992.28 14.37 986.12 9.24 978.2 5.54C970.28 1.85 961.04 0 950.48 0H867.74V132.02H913.17V88.01H926.68L956.65 132.02H956.64ZM913.16 31.86H943.43C947.89 31.86 951.35 32.92 953.82 35.03C956.28 37.14 957.51 40.19 957.51 44.18C957.51 48.17 956.28 51.22 953.82 53.33C951.36 55.44 947.89 56.5 943.43 56.5H913.16V31.85V31.86Z" fill="#FFFEFA"/>
<path d="M344.65 157.3V187.05L342.89 185.33H366.72V188.82H340.75V157.31H344.66L344.65 157.3Z" fill="#FFFEFA"/>
<path d="M364.86 167.38L367.8 160.87L367.97 162.26C367.49 162.26 367.05 162.14 366.65 161.9C366.25 161.66 365.92 161.34 365.68 160.93C365.44 160.52 365.32 160.08 365.32 159.61C365.32 159.14 365.44 158.7 365.68 158.31C365.92 157.92 366.24 157.6 366.65 157.36C367.06 157.12 367.5 157 367.97 157C368.47 157 368.93 157.12 369.34 157.36C369.75 157.6 370.07 157.92 370.31 158.33C370.55 158.74 370.67 159.22 370.67 159.78C370.67 160.28 370.57 160.82 370.38 161.4C370.18 161.98 369.81 162.75 369.25 163.73L367.19 167.39H364.88L364.86 167.38Z" fill="#FFFEFA"/>
<path d="M375.49 156.46H379.31V188.81H375.49V156.46ZM389.1 164.61C391.31 164.61 393.19 165.05 394.73 165.93C396.27 166.81 397.45 168.09 398.26 169.75C399.07 171.42 399.48 173.44 399.48 175.82V188.8H395.61V176.45C395.61 173.62 394.96 171.49 393.66 170.04C392.36 168.6 390.46 167.88 387.97 167.88C386.23 167.88 384.71 168.27 383.41 169.06C382.11 169.85 381.1 170.93 380.38 172.32C379.67 173.71 379.31 175.32 379.31 177.17L377.76 176.08C377.96 173.73 378.56 171.7 379.57 169.99C380.58 168.28 381.9 166.96 383.54 166.02C385.18 165.08 387.03 164.61 389.11 164.61H389.1Z" fill="#FFFEFA"/>
<path d="M415.2 189.36C413.04 189.36 411.21 188.92 409.72 188.04C408.22 187.16 407.07 185.88 406.27 184.22C405.47 182.55 405.07 180.53 405.07 178.15V165.17H408.89V177.52C408.89 180.32 409.53 182.45 410.8 183.91C412.07 185.37 413.92 186.09 416.33 186.09C418.04 186.09 419.52 185.71 420.78 184.93C422.04 184.15 423.02 183.07 423.72 181.67C424.42 180.27 424.77 178.64 424.77 176.8L426.28 177.64C426.11 180.02 425.53 182.09 424.54 183.86C423.55 185.63 422.25 186.98 420.65 187.94C419.05 188.89 417.23 189.37 415.19 189.37L415.2 189.36ZM426.08 188.81L424.78 180.78V165.15H428.6V181.37L429.94 188.81H426.07H426.08Z" fill="#FFFEFA"/>
<path d="M434.06 165.16H437.88L439.22 173.19V188.82H435.4V172.64L434.06 165.16ZM448.27 164.61C450.31 164.61 452.06 165.05 453.5 165.93C454.94 166.81 456.04 168.09 456.78 169.75C457.52 171.42 457.89 173.44 457.89 175.82V188.8H454.07V176.45C454.07 173.62 453.48 171.49 452.3 170.04C451.12 168.6 449.4 167.88 447.13 167.88C445.53 167.88 444.15 168.27 442.97 169.06C441.79 169.84 440.88 170.93 440.22 172.32C439.56 173.71 439.23 175.32 439.23 177.17L437.68 176.08C437.88 173.73 438.44 171.7 439.38 169.99C440.32 168.28 441.55 166.96 443.08 166.02C444.61 165.08 446.34 164.61 448.27 164.61ZM466.92 164.61C468.96 164.61 470.71 165.05 472.15 165.93C473.59 166.81 474.69 168.09 475.43 169.75C476.17 171.42 476.54 173.44 476.54 175.82V188.8H472.72V176.45C472.72 173.62 472.13 171.49 470.96 170.04C469.78 168.6 468.06 167.88 465.79 167.88C464.19 167.88 462.81 168.27 461.63 169.06C460.45 169.84 459.54 170.93 458.88 172.32C458.22 173.71 457.89 175.32 457.89 177.17L456.34 176.08C456.54 173.73 457.1 171.7 458.04 169.99C458.98 168.28 460.21 166.96 461.74 166.02C463.27 165.08 465 164.61 466.93 164.61H466.92Z" fill="#FFFEFA"/>
<path d="M506.5 177.01C505.88 179.48 504.94 181.63 503.66 183.48C502.38 185.33 500.84 186.77 499.04 187.81C497.23 188.85 495.24 189.36 493.05 189.36C490.72 189.36 488.67 188.84 486.87 187.78C485.08 186.73 483.67 185.28 482.65 183.43C481.63 181.58 481.12 179.44 481.12 177C481.12 174.56 481.63 172.38 482.65 170.53C483.67 168.68 485.08 167.23 486.87 166.18C488.66 165.13 490.72 164.6 493.05 164.6C495.24 164.6 497.23 165.12 499.04 166.15C500.85 167.19 502.39 168.63 503.68 170.48C504.97 172.33 505.91 174.5 506.5 176.99V177.01ZM485.07 177.01C485.07 178.8 485.44 180.39 486.18 181.76C486.92 183.13 487.94 184.2 489.23 184.97C490.52 185.74 492 186.13 493.68 186.13C495.36 186.13 496.91 185.75 498.32 184.97C499.73 184.2 500.99 183.13 502.1 181.76C503.21 180.39 504.11 178.8 504.81 177.01C504.11 175.19 503.21 173.59 502.1 172.22C500.99 170.85 499.73 169.78 498.32 169.01C496.9 168.24 495.36 167.85 493.68 167.85C492 167.85 490.51 168.24 489.23 169.01C487.94 169.78 486.93 170.85 486.18 172.22C485.44 173.59 485.07 175.19 485.07 177.01ZM504.99 188.81L504.15 179.86L505.2 177L504.15 174.1L504.99 165.15H508.94L507.81 177L508.94 188.81H504.99Z" fill="#FFFEFA"/>
<path d="M516.59 161.59C515.78 161.59 515.11 161.34 514.57 160.85C514.03 160.36 513.77 159.75 513.77 159.02C513.77 158.29 514.04 157.64 514.57 157.15C515.1 156.66 515.77 156.41 516.59 156.41C517.41 156.41 518.12 156.66 518.65 157.15C519.18 157.64 519.45 158.26 519.45 159.02C519.45 159.78 519.18 160.36 518.65 160.85C518.12 161.34 517.43 161.59 516.59 161.59ZM514.7 165.07L516.59 165.41L518.52 165.07V188.81H514.7V165.07Z" fill="#FFFEFA"/>
<path d="M523.73 165.16H527.55L528.89 173.19V188.82H525.07V172.64L523.73 165.16ZM538.69 164.61C540.9 164.61 542.78 165.05 544.32 165.93C545.86 166.81 547.04 168.09 547.85 169.75C548.66 171.42 549.07 173.44 549.07 175.82V188.8H545.25V176.45C545.25 173.62 544.6 171.49 543.3 170.04C542 168.6 540.09 167.88 537.56 167.88C535.82 167.88 534.3 168.27 533 169.06C531.7 169.85 530.69 170.93 529.97 172.32C529.26 173.71 528.9 175.32 528.9 177.17L527.35 176.08C527.55 173.73 528.15 171.7 529.16 169.99C530.17 168.28 531.49 166.96 533.13 166.02C534.77 165.08 536.62 164.61 538.7 164.61H538.69Z" fill="#FFFEFA"/>
<path d="M590.63 177.01C590.01 179.48 589.07 181.63 587.79 183.48C586.51 185.33 584.97 186.77 583.17 187.81C581.36 188.85 579.37 189.36 577.18 189.36C574.85 189.36 572.8 188.84 571 187.78C569.21 186.73 567.8 185.28 566.78 183.43C565.76 181.58 565.25 179.44 565.25 177C565.25 174.56 565.76 172.38 566.78 170.53C567.8 168.68 569.21 167.23 571 166.18C572.79 165.13 574.85 164.6 577.18 164.6C579.37 164.6 581.36 165.12 583.17 166.15C584.98 167.19 586.52 168.63 587.81 170.48C589.1 172.33 590.04 174.5 590.63 176.99V177.01ZM569.2 177.01C569.2 178.8 569.57 180.39 570.31 181.76C571.05 183.13 572.07 184.2 573.36 184.97C574.65 185.74 576.13 186.13 577.81 186.13C579.49 186.13 581.04 185.75 582.45 184.97C583.86 184.2 585.12 183.13 586.23 181.76C587.34 180.39 588.24 178.8 588.94 177.01C588.24 175.19 587.34 173.59 586.23 172.22C585.12 170.85 583.86 169.78 582.45 169.01C581.03 168.24 579.49 167.85 577.81 167.85C576.13 167.85 574.64 168.24 573.36 169.01C572.07 169.78 571.06 170.85 570.31 172.22C569.57 173.59 569.2 175.19 569.2 177.01ZM589.11 188.81L588.27 179.86L589.32 177L588.27 174.1L589.11 165.15H593.06L591.93 177L593.06 188.81H589.11Z" fill="#FFFEFA"/>
<path d="M608.61 189.36C606.45 189.36 604.62 188.92 603.13 188.04C601.63 187.16 600.48 185.88 599.68 184.22C598.88 182.55 598.48 180.53 598.48 178.15V165.17H602.3V177.52C602.3 180.32 602.94 182.45 604.21 183.91C605.48 185.37 607.33 186.09 609.74 186.09C611.45 186.09 612.93 185.71 614.19 184.93C615.45 184.15 616.43 183.07 617.13 181.67C617.83 180.27 618.18 178.64 618.18 176.8L619.69 177.64C619.52 180.02 618.94 182.09 617.95 183.86C616.96 185.63 615.66 186.98 614.06 187.94C612.46 188.89 610.64 189.37 608.6 189.37L608.61 189.36ZM619.49 188.81L618.19 180.78V165.15H622.01V181.37L623.35 188.81H619.48H619.49Z" fill="#FFFEFA"/>
<path d="M665.25 179.82C664.94 181.7 664.18 183.36 662.96 184.8C661.74 186.24 660.2 187.36 658.34 188.16C656.48 188.96 654.4 189.36 652.1 189.36C649.47 189.36 647.15 188.84 645.15 187.78C643.15 186.73 641.58 185.28 640.44 183.43C639.31 181.58 638.74 179.44 638.74 177C638.74 174.56 639.31 172.38 640.44 170.53C641.57 168.68 643.14 167.23 645.15 166.18C647.15 165.13 649.47 164.6 652.1 164.6C654.4 164.6 656.48 165.01 658.34 165.82C660.2 166.63 661.74 167.75 662.96 169.16C664.18 170.58 664.94 172.24 665.25 174.14H661.3C660.88 172.18 659.84 170.63 658.17 169.5C656.5 168.37 654.48 167.8 652.1 167.8C650.19 167.8 648.53 168.18 647.12 168.93C645.7 169.69 644.61 170.74 643.84 172.1C643.07 173.46 642.68 175.09 642.68 177C642.68 178.91 643.06 180.46 643.84 181.83C644.61 183.2 645.7 184.27 647.12 185.02C648.53 185.78 650.19 186.15 652.1 186.15C654.51 186.15 656.55 185.58 658.21 184.43C659.88 183.28 660.91 181.74 661.3 179.81H665.25V179.82Z" fill="#FFFEFA"/>
<path d="M682.39 189.36C679.62 189.36 677.18 188.84 675.08 187.81C672.98 186.77 671.34 185.32 670.16 183.46C668.98 181.6 668.4 179.45 668.4 177.01C668.4 174.57 668.99 172.39 670.16 170.54C671.34 168.69 672.98 167.24 675.08 166.19C677.18 165.14 679.62 164.61 682.39 164.61C685.16 164.61 687.65 165.14 689.77 166.19C691.88 167.24 693.53 168.69 694.71 170.54C695.89 172.39 696.47 174.55 696.47 177.01C696.47 179.47 695.88 181.6 694.71 183.46C693.53 185.32 691.89 186.77 689.77 187.81C687.65 188.85 685.2 189.36 682.39 189.36ZM682.44 186.17C684.51 186.17 686.31 185.79 687.82 185.04C689.33 184.28 690.5 183.22 691.33 181.85C692.16 180.48 692.57 178.85 692.57 176.98C692.57 175.11 692.16 173.52 691.33 172.15C690.5 170.78 689.33 169.71 687.82 168.96C686.31 168.2 684.51 167.83 682.44 167.83C680.37 167.83 678.61 168.21 677.08 168.96C675.55 169.72 674.38 170.78 673.55 172.15C672.72 173.52 672.31 175.13 672.31 176.98C672.31 178.83 672.72 180.48 673.55 181.85C674.38 183.22 675.55 184.29 677.08 185.04C678.61 185.8 680.39 186.17 682.44 186.17Z" fill="#FFFEFA"/>
<path d="M713.82 189.36C711.1 189.36 708.7 188.84 706.61 187.78C704.52 186.72 702.88 185.28 701.69 183.43C700.5 181.58 699.9 179.43 699.9 176.96C699.9 174.49 700.46 172.38 701.58 170.53C702.7 168.68 704.25 167.23 706.22 166.18C708.19 165.13 710.48 164.6 713.09 164.6C715.7 164.6 717.86 165.16 719.75 166.28C721.64 167.4 723.11 168.98 724.16 171.01C725.21 173.04 725.74 175.4 725.74 178.09H702.8V175.02H724.15L721.88 176.45C721.8 174.66 721.38 173.12 720.62 171.83C719.86 170.54 718.84 169.55 717.55 168.85C716.26 168.15 714.75 167.8 713.01 167.8C711.16 167.8 709.55 168.17 708.18 168.91C706.81 169.65 705.74 170.7 704.99 172.04C704.23 173.38 703.86 174.97 703.86 176.79C703.86 178.61 704.29 180.35 705.14 181.75C705.99 183.15 707.21 184.24 708.77 185.01C710.34 185.78 712.19 186.17 714.32 186.17C716.28 186.17 718.19 185.84 720.06 185.18C721.92 184.52 723.6 183.63 725.08 182.51V185.54C723.62 186.72 721.88 187.65 719.85 188.33C717.82 189.02 715.81 189.36 713.82 189.36Z" fill="#FFFEFA"/>
<path d="M740.38 189.36C738.22 189.36 736.39 188.92 734.9 188.04C733.4 187.16 732.25 185.88 731.45 184.22C730.65 182.55 730.25 180.53 730.25 178.15V165.17H734.07V177.52C734.07 180.32 734.71 182.45 735.98 183.91C737.25 185.37 739.1 186.09 741.51 186.09C743.22 186.09 744.7 185.71 745.96 184.93C747.22 184.15 748.2 183.07 748.9 181.67C749.6 180.27 749.95 178.64 749.95 176.8L751.46 177.64C751.29 180.02 750.71 182.09 749.72 183.86C748.73 185.63 747.43 186.98 745.83 187.94C744.23 188.89 742.41 189.37 740.37 189.37L740.38 189.36ZM751.26 188.81L749.96 180.78V165.15H753.78V181.37L755.12 188.81H751.25H751.26Z" fill="#FFFEFA"/>
<path d="M759.25 165.16H763.07L764.41 173.23V188.82H760.59V172.52L759.25 165.17V165.16ZM777.02 165.07V168.56C776.49 168.39 775.86 168.27 775.15 168.18C774.44 168.1 773.74 168.05 773.07 168.05C771.39 168.05 769.9 168.43 768.59 169.18C767.29 169.94 766.26 171.04 765.52 172.48C764.78 173.92 764.41 175.62 764.41 177.59L763.32 176.08C763.38 174.43 763.65 172.9 764.14 171.5C764.63 170.1 765.32 168.89 766.2 167.87C767.08 166.85 768.14 166.05 769.37 165.47C770.6 164.9 772 164.61 773.57 164.61C774.19 164.61 774.81 164.65 775.44 164.74C776.07 164.82 776.6 164.94 777.02 165.08V165.07Z" fill="#FFFEFA"/>
<path d="M814.96 177.01C814.34 179.48 813.4 181.63 812.12 183.48C810.84 185.33 809.3 186.77 807.5 187.81C805.69 188.85 803.7 189.36 801.51 189.36C799.18 189.36 797.13 188.84 795.33 187.78C793.54 186.73 792.13 185.28 791.11 183.43C790.09 181.58 789.58 179.44 789.58 177C789.58 174.56 790.09 172.38 791.11 170.53C792.13 168.68 793.54 167.23 795.33 166.18C797.12 165.13 799.18 164.6 801.51 164.6C803.7 164.6 805.69 165.12 807.5 166.15C809.31 167.19 810.85 168.63 812.14 170.48C813.43 172.33 814.37 174.5 814.96 176.99V177.01ZM793.53 177.01C793.53 178.8 793.9 180.39 794.64 181.76C795.38 183.13 796.4 184.2 797.69 184.97C798.98 185.74 800.46 186.13 802.14 186.13C803.82 186.13 805.37 185.75 806.78 184.97C808.19 184.2 809.45 183.13 810.56 181.76C811.67 180.39 812.57 178.8 813.27 177.01C812.57 175.19 811.67 173.59 810.56 172.22C809.45 170.85 808.19 169.78 806.78 169.01C805.36 168.24 803.82 167.85 802.14 167.85C800.46 167.85 798.97 168.24 797.69 169.01C796.4 169.78 795.39 170.85 794.64 172.22C793.9 173.59 793.53 175.19 793.53 177.01ZM813.49 188.81L812.65 179.78L813.78 177.01L812.73 174.03L814.37 156.47H818.28L816.31 176.85L817.4 188.83H813.49V188.81Z" fill="#FFFEFA"/>
<path d="M832.99 189.36C830.83 189.36 829 188.92 827.51 188.04C826.01 187.16 824.86 185.88 824.06 184.22C823.26 182.55 822.86 180.53 822.86 178.15V165.17H826.68V177.52C826.68 180.32 827.32 182.45 828.59 183.91C829.86 185.37 831.71 186.09 834.12 186.09C835.83 186.09 837.31 185.71 838.57 184.93C839.83 184.15 840.81 183.07 841.51 181.67C842.21 180.27 842.56 178.64 842.56 176.8L844.07 177.64C843.9 180.02 843.32 182.09 842.33 183.86C841.34 185.63 840.04 186.98 838.44 187.94C836.84 188.89 835.02 189.37 832.98 189.37L832.99 189.36ZM843.87 188.81L842.57 180.78V165.15H846.39V181.37L847.73 188.81H843.86H843.87Z" fill="#FFFEFA"/>
<path d="M888.54 177.01C887.92 179.48 886.98 181.63 885.7 183.48C884.42 185.33 882.88 186.77 881.08 187.81C879.27 188.85 877.28 189.36 875.09 189.36C872.76 189.36 870.71 188.84 868.91 187.78C867.12 186.73 865.71 185.28 864.69 183.43C863.67 181.58 863.16 179.44 863.16 177C863.16 174.56 863.67 172.38 864.69 170.53C865.71 168.68 867.12 167.23 868.91 166.18C870.7 165.13 872.76 164.6 875.09 164.6C877.28 164.6 879.27 165.12 881.08 166.15C882.89 167.19 884.43 168.63 885.72 170.48C887.01 172.33 887.95 174.5 888.54 176.99V177.01ZM867.11 177.01C867.11 178.8 867.48 180.39 868.22 181.76C868.96 183.13 869.98 184.2 871.27 184.97C872.56 185.74 874.04 186.13 875.72 186.13C877.4 186.13 878.95 185.75 880.36 184.97C881.77 184.2 883.03 183.13 884.14 181.76C885.25 180.39 886.15 178.8 886.85 177.01C886.15 175.19 885.25 173.59 884.14 172.22C883.03 170.85 881.77 169.78 880.36 169.01C878.94 168.24 877.4 167.85 875.72 167.85C874.04 167.85 872.55 168.24 871.27 169.01C869.98 169.78 868.97 170.85 868.22 172.22C867.48 173.59 867.11 175.19 867.11 177.01ZM887.07 188.81L886.23 179.78L887.36 177.01L886.31 174.03L887.95 156.47H891.86L889.89 176.85L890.98 188.83H887.07V188.81Z" fill="#FFFEFA"/>
<path d="M898.66 161.59C897.85 161.59 897.18 161.34 896.64 160.85C896.1 160.36 895.84 159.75 895.84 159.02C895.84 158.29 896.11 157.64 896.64 157.15C897.17 156.66 897.84 156.41 898.66 156.41C899.48 156.41 900.19 156.66 900.72 157.15C901.25 157.64 901.52 158.26 901.52 159.02C901.52 159.78 901.25 160.36 900.72 160.85C900.19 161.34 899.5 161.59 898.66 161.59ZM896.77 165.07L898.66 165.41L900.59 165.07V188.81H896.77V165.07Z" fill="#FFFEFA"/>
<path d="M916.9 187.3C914.77 187.3 912.85 186.83 911.12 185.89C909.4 184.95 908.03 183.63 907.02 181.92C906.01 180.21 905.51 178.22 905.51 175.95C905.51 173.68 906.01 171.7 907.02 170C908.03 168.31 909.39 166.98 911.12 166.03C912.84 165.08 914.77 164.6 916.9 164.6C918.5 164.6 919.98 164.85 921.35 165.34C922.72 165.83 923.97 166.49 925.09 167.31C926.21 168.14 927.16 169.05 927.95 170.04C928.73 171.04 929.34 172.05 929.78 173.09C930.21 174.13 930.43 175.09 930.43 175.99C930.43 177.11 930.1 178.33 929.44 179.65C928.78 180.97 927.84 182.21 926.62 183.37C925.4 184.53 923.97 185.48 922.33 186.21C920.69 186.94 918.88 187.3 916.89 187.3H916.9ZM928.92 183.1V178.81L929.09 178.18V174.27L928.92 173.43V165.15H932.74V182.5C932.74 185.61 932.12 188.19 930.89 190.23C929.66 192.27 927.97 193.79 925.83 194.79C923.69 195.78 921.27 196.28 918.58 196.28C916.51 196.28 914.6 195.99 912.87 195.42C911.13 194.85 909.47 193.97 907.87 192.79V189.43C909.55 190.77 911.28 191.72 913.06 192.27C914.84 192.82 916.6 193.09 918.33 193.09C921.78 193.09 924.4 192.2 926.21 190.42C928.02 188.64 928.92 186.2 928.92 183.09V183.1ZM917.91 184.23C920.1 184.23 922.12 183.58 923.98 182.28C925.84 180.98 927.54 178.87 929.09 175.96C927.58 172.99 925.88 170.87 924.01 169.59C922.14 168.31 920.1 167.68 917.92 167.68C916.1 167.68 914.56 168.04 913.3 168.75C912.04 169.46 911.08 170.44 910.42 171.67C909.76 172.9 909.43 174.33 909.43 175.96C909.43 177.59 909.76 178.98 910.42 180.23C911.08 181.48 912.04 182.46 913.3 183.17C914.56 183.88 916.1 184.24 917.92 184.24L917.91 184.23Z" fill="#FFFEFA"/>
<path d="M940.81 161.59C940 161.59 939.33 161.34 938.79 160.85C938.25 160.36 937.99 159.75 937.99 159.02C937.99 158.29 938.26 157.64 938.79 157.15C939.32 156.66 939.99 156.41 940.81 156.41C941.63 156.41 942.34 156.66 942.87 157.15C943.4 157.64 943.67 158.26 943.67 159.02C943.67 159.78 943.4 160.36 942.87 160.85C942.34 161.34 941.65 161.59 940.81 161.59ZM938.92 165.07L940.81 165.41L942.74 165.07V188.81H938.92V165.07Z" fill="#FFFEFA"/>
<path d="M946.06 168.27V166.42L951.27 165.45L952.78 159.06H955.09V165.15H966.65V168.26H955.09V180.28C955.09 182.41 955.56 183.9 956.5 184.76C957.44 185.61 958.9 186.04 960.89 186.04C962.15 186.04 963.27 185.89 964.25 185.58C965.23 185.27 966.17 184.82 967.07 184.24V187.64C966.4 188.06 965.41 188.45 964.11 188.82C962.81 189.18 961.47 189.37 960.1 189.37C957.94 189.37 956.22 189.01 954.93 188.28C953.64 187.55 952.71 186.54 952.14 185.25C951.56 183.96 951.28 182.52 951.28 180.92V168.27H946.07H946.06Z" fill="#FFFEFA"/>
<path d="M994.39 177.01C993.77 179.48 992.83 181.63 991.55 183.48C990.27 185.33 988.73 186.77 986.93 187.81C985.12 188.85 983.13 189.36 980.94 189.36C978.61 189.36 976.56 188.84 974.76 187.78C972.97 186.73 971.56 185.28 970.54 183.43C969.52 181.58 969.01 179.44 969.01 177C969.01 174.56 969.52 172.38 970.54 170.53C971.56 168.68 972.97 167.23 974.76 166.18C976.55 165.13 978.61 164.6 980.94 164.6C983.13 164.6 985.12 165.12 986.93 166.15C988.74 167.19 990.28 168.63 991.57 170.48C992.86 172.33 993.8 174.5 994.39 176.99V177.01ZM972.96 177.01C972.96 178.8 973.33 180.39 974.07 181.76C974.81 183.13 975.83 184.2 977.12 184.97C978.41 185.74 979.89 186.13 981.57 186.13C983.25 186.13 984.8 185.75 986.21 184.97C987.62 184.2 988.88 183.13 989.99 181.76C991.1 180.39 992 178.8 992.7 177.01C992 175.19 991.1 173.59 989.99 172.22C988.88 170.85 987.62 169.78 986.21 169.01C984.79 168.24 983.25 167.85 981.57 167.85C979.89 167.85 978.4 168.24 977.12 169.01C975.83 169.78 974.82 170.85 974.07 172.22C973.33 173.59 972.96 175.19 972.96 177.01ZM992.87 188.81L992.03 179.86L993.08 177L992.03 174.1L992.87 165.15H996.82L995.69 177L996.82 188.81H992.87Z" fill="#FFFEFA"/>
<path d="M1002.58 156.46H1006.4V188.81H1002.58V156.46Z" fill="#FFFEFA"/>
<path d="M1225.67 114.12L1225.62 72.08C1225.62 69.86 1223.01 68.68 1221.34 70.13C1210.8 79.25 1200.26 88.37 1189.72 97.49C1189.72 97.49 1189.72 97.49 1189.73 97.49C1185.37 100.64 1181.82 105.35 1180.65 112.81C1179.82 118.06 1180.82 123.49 1183.7 127.96C1192.11 141.02 1209.68 142.03 1219.58 131.51C1223.21 127.65 1225.22 122.86 1225.65 117.96C1225.65 117.96 1225.66 117.96 1225.67 117.96C1225.67 117.91 1225.67 117.86 1225.67 117.81C1225.77 116.58 1225.76 115.34 1225.67 114.11V114.12Z" fill="#FFFEFA"/>
<path d="M1103.97 0.319946C1102.2 0.319946 1100.75 1.67995 1100.6 3.43995C1100.13 8.80995 1099.34 14.1599 1098.19 19.4099C1096.33 27.8999 1094.33 32.8099 1092.87 36.3899C1091.98 38.5799 1091.75 39.1799 1091.56 40.1299C1091.44 40.7299 1091.37 41.0799 1091.49 41.5999C1091.84 43.0799 1093.23 44.0799 1094.75 44.0799H1136.26C1139.26 44.0799 1142.16 42.9999 1144.44 41.0399L1184.81 6.25995C1187.18 4.20995 1185.74 0.319946 1182.6 0.319946H1103.95H1103.97Z" fill="#FFFEFA"/>
<path d="M1225.03 1.73995C1224.17 0.639946 1222.71 0.379946 1221.82 0.319946C1219.65 0.319946 1217.48 0.319946 1215.31 0.319946C1214.98 0.319946 1214.61 0.339946 1214.23 0.409946C1212.24 0.749946 1210.89 1.98995 1210.24 2.69995C1171.24 36.3399 1132.23 69.9799 1093.23 103.62C1091.54 105.08 1091.01 107.47 1091.94 109.5C1093.29 112.41 1094.61 115.75 1095.73 119.51C1097.34 124.9 1098.17 129.86 1098.57 134.14C1098.81 136.71 1100.98 138.67 1103.56 138.67H1116.65C1118.22 138.67 1119.75 138.11 1120.94 137.08C1154.96 107.98 1188.98 78.8799 1223 49.7799C1224.72 48.3099 1225.71 46.1599 1225.71 43.8999C1225.71 30.5399 1225.71 17.1699 1225.72 3.80995C1225.72 3.29995 1225.59 2.46995 1225.02 1.74995L1225.03 1.73995Z" fill="#FFFEFA"/>
<path d="M1086.64 78.0499C1086.85 63.7399 1082.12 54.4499 1079 48.2999C1077.61 45.5666 1077.01 43.7299 1077.2 42.7899C1077.39 41.8599 1077.61 41.2599 1078.49 39.0899C1079.94 35.5399 1081.92 30.6699 1083.77 22.2399C1085.09 16.2199 1085.96 10.0699 1086.38 3.90995C1086.51 1.96995 1085 0.319946 1083.05 0.319946H1045.83C1044.13 0.319946 1042.69 1.59995 1042.52 3.29995C1042.21 6.51995 1041.71 9.71995 1041.02 12.8699C1039.97 17.6399 1039.04 19.9299 1037.96 22.5899C1036.78 25.4899 1035.31 29.1099 1034.29 34.1999C1031.03 50.4899 1036.42 61.0999 1039.99 68.1199C1042.23 72.53 1042.93 74.0799 1042.89 77.4199C1042.84 80.5399 1042.19 81.7799 1040.25 85.4599C1037.03 91.5599 1031.64 101.77 1034.21 117.53C1035.11 123.04 1036.6 127.04 1037.8 130.25C1038.91 133.21 1039.86 135.77 1040.73 140.73C1041.36 144.37 1041.73 148.1 1041.83 151.83C1041.84 152.3 1041.86 153.34 1041.85 154.62C1041.82 157.06 1041.66 159.56 1041.38 162.1C1041.16 164.08 1042.69 165.81 1044.68 165.81H1081.93C1083.68 165.81 1085.12 164.46 1085.26 162.71C1085.46 160.17 1085.58 157.65 1085.61 155.16C1085.63 153.26 1085.61 151.68 1085.58 150.72C1085.44 144.86 1084.85 138.97 1083.85 133.2C1082.29 124.25 1080.28 118.87 1078.81 114.93C1077.92 112.56 1077.61 111.68 1077.41 110.47C1077.28 109.65 1077.3 109.29 1077.29 109.29C1077.43 108.75 1078.32 107.08 1078.96 105.86C1081.95 100.2 1086.46 91.6599 1086.65 78.0299L1086.64 78.0499Z" fill="#FFFEFA"/>
<path d="M1102.81 152.53C1101.25 152.53 1099.98 153.78 1099.97 155.34C1099.92 159.14 1099.69 163.15 1099.27 167.26L1098.44 175.49C1098.17 178.16 1095.92 180.19 1093.24 180.19H1044.41C1042.17 180.19 1040.35 182.01 1040.35 184.25V192.38C1040.35 194.54 1042.1 196.29 1044.26 196.29H1221.07C1223.66 196.29 1225.76 194.19 1225.76 191.6V157.11C1225.76 154.58 1223.71 152.53 1221.18 152.53H1102.82H1102.81Z" fill="#FFFEFA"/>
</g>
<defs>
<clipPath id="clip0_44_704">
<rect width="1224.8" height="196.29" fill="white"/>
</clipPath>
</defs>
</svg>
