<svg width="1225" height="197" viewBox="0 0 1225 197" fill="none" xmlns="http://www.w3.org/2000/svg">
<g clip-path="url(#clip0_44_701)">
<path d="M45.44 0H0.0100098V132.02H123.24V91.54H45.44V0Z" fill="black"/>
<path d="M184.32 0L126.4 132.02H174.8L183.84 109.84H245.35L254.38 132.02H302.79L244.87 0H184.32ZM198.54 73.75L214.6 34.33L230.66 73.75H198.55H198.54Z" fill="black"/>
<path d="M414.62 86.09L383.06 0H312.82V132.02H355.95V39.82L392.04 132.02H436.92L473 39.38V132.02H516.14V0H445.9L414.62 86.09Z" fill="black"/>
<path d="M584.08 0L526.16 132.02H574.57L583.6 109.84H645.11L654.14 132.02H702.55L644.64 0H584.09H584.08ZM598.3 73.75L614.36 34.33L630.42 73.75H598.31H598.3Z" fill="black"/>
<path d="M823.04 82.56C830.96 78.92 837.12 73.79 841.52 67.16C845.92 60.53 848.12 52.87 848.12 44.19C848.12 35.51 845.91 27.52 841.52 20.95C837.12 14.37 830.96 9.24 823.04 5.54C815.12 1.85 805.88 0 795.32 0H712.58V132.02H758.01V88.01H771.52L801.49 132.02H853.42L819.34 83.99C820.59 83.53 821.86 83.1 823.05 82.56H823.04ZM758.01 31.86H788.28C792.74 31.86 796.2 32.92 798.67 35.03C801.13 37.14 802.36 40.19 802.36 44.18C802.36 48.17 801.13 51.22 798.67 53.33C796.2 55.44 792.74 56.5 788.28 56.5H758.01V31.85V31.86Z" fill="black"/>
<path d="M955.68 132.02H1007.61L973.53 83.99C974.78 83.53 976.05 83.1 977.24 82.56C985.16 78.92 991.32 73.79 995.72 67.16C1000.12 60.53 1002.32 52.87 1002.32 44.19C1002.32 35.51 1000.11 27.52 995.72 20.95C991.32 14.37 985.16 9.24 977.24 5.54C969.32 1.85 960.08 0 949.52 0H866.78V132.02H912.21V88.01H925.72L955.69 132.02H955.68ZM912.21 31.86H942.48C946.94 31.86 950.4 32.92 952.87 35.03C955.33 37.14 956.56 40.19 956.56 44.18C956.56 48.17 955.33 51.22 952.87 53.33C950.41 55.44 946.94 56.5 942.48 56.5H912.21V31.85V31.86Z" fill="black"/>
<path d="M343.69 157.3V187.05L341.93 185.33H365.76V188.82H339.79V157.31H343.7L343.69 157.3Z" fill="black"/>
<path d="M363.9 167.38L366.84 160.87L367.01 162.26C366.53 162.26 366.09 162.14 365.69 161.9C365.29 161.66 364.96 161.34 364.72 160.93C364.48 160.52 364.36 160.08 364.36 159.61C364.36 159.14 364.48 158.7 364.72 158.31C364.96 157.92 365.28 157.6 365.69 157.36C366.1 157.12 366.54 157 367.01 157C367.51 157 367.97 157.12 368.38 157.36C368.79 157.6 369.11 157.92 369.35 158.33C369.59 158.74 369.71 159.22 369.71 159.78C369.71 160.28 369.61 160.82 369.42 161.4C369.22 161.98 368.85 162.75 368.29 163.73L366.23 167.39H363.92L363.9 167.38Z" fill="black"/>
<path d="M374.53 156.46H378.35V188.81H374.53V156.46ZM388.14 164.61C390.35 164.61 392.23 165.05 393.77 165.93C395.31 166.81 396.49 168.09 397.3 169.75C398.11 171.42 398.52 173.44 398.52 175.82V188.8H394.65V176.45C394.65 173.62 394 171.49 392.7 170.04C391.4 168.6 389.5 167.88 387.01 167.88C385.27 167.88 383.75 168.27 382.45 169.06C381.15 169.85 380.14 170.93 379.42 172.32C378.71 173.71 378.35 175.32 378.35 177.17L376.8 176.08C377 173.73 377.6 171.7 378.61 169.99C379.62 168.28 380.94 166.96 382.58 166.02C384.22 165.08 386.07 164.61 388.15 164.61H388.14Z" fill="black"/>
<path d="M414.24 189.36C412.08 189.36 410.25 188.92 408.76 188.04C407.26 187.16 406.11 185.88 405.31 184.22C404.51 182.55 404.11 180.53 404.11 178.15V165.17H407.93V177.52C407.93 180.32 408.57 182.45 409.84 183.91C411.11 185.37 412.96 186.09 415.37 186.09C417.08 186.09 418.56 185.71 419.82 184.93C421.08 184.15 422.06 183.07 422.76 181.67C423.46 180.27 423.81 178.64 423.81 176.8L425.32 177.64C425.15 180.02 424.57 182.09 423.58 183.86C422.59 185.63 421.29 186.98 419.69 187.94C418.09 188.89 416.27 189.37 414.23 189.37L414.24 189.36ZM425.12 188.81L423.82 180.78V165.15H427.64V181.37L428.98 188.81H425.11H425.12Z" fill="black"/>
<path d="M433.1 165.16H436.92L438.26 173.19V188.82H434.44V172.64L433.1 165.16ZM447.31 164.61C449.35 164.61 451.1 165.05 452.54 165.93C453.98 166.81 455.08 168.09 455.82 169.75C456.56 171.42 456.93 173.44 456.93 175.82V188.8H453.11V176.45C453.11 173.62 452.52 171.49 451.34 170.04C450.16 168.6 448.44 167.88 446.17 167.88C444.57 167.88 443.19 168.27 442.01 169.06C440.83 169.84 439.92 170.93 439.26 172.32C438.6 173.71 438.27 175.32 438.27 177.17L436.72 176.08C436.92 173.73 437.48 171.7 438.42 169.99C439.36 168.28 440.59 166.96 442.12 166.02C443.65 165.08 445.38 164.61 447.31 164.61ZM465.96 164.61C468 164.61 469.75 165.05 471.19 165.93C472.63 166.81 473.73 168.09 474.47 169.75C475.21 171.42 475.58 173.44 475.58 175.82V188.8H471.76V176.45C471.76 173.62 471.17 171.49 470 170.04C468.82 168.6 467.1 167.88 464.83 167.88C463.23 167.88 461.85 168.27 460.67 169.06C459.49 169.84 458.58 170.93 457.92 172.32C457.26 173.71 456.93 175.32 456.93 177.17L455.38 176.08C455.58 173.73 456.14 171.7 457.08 169.99C458.02 168.28 459.25 166.96 460.78 166.02C462.31 165.08 464.04 164.61 465.97 164.61H465.96Z" fill="black"/>
<path d="M505.55 177.01C504.93 179.48 503.99 181.63 502.71 183.48C501.43 185.33 499.89 186.77 498.09 187.81C496.28 188.85 494.29 189.36 492.1 189.36C489.77 189.36 487.72 188.84 485.92 187.78C484.13 186.73 482.72 185.28 481.7 183.43C480.68 181.58 480.17 179.44 480.17 177C480.17 174.56 480.68 172.38 481.7 170.53C482.72 168.68 484.13 167.23 485.92 166.18C487.71 165.13 489.77 164.6 492.1 164.6C494.29 164.6 496.28 165.12 498.09 166.15C499.9 167.19 501.44 168.63 502.73 170.48C504.02 172.33 504.96 174.5 505.55 176.99V177.01ZM484.12 177.01C484.12 178.8 484.49 180.39 485.23 181.76C485.97 183.13 486.99 184.2 488.28 184.97C489.57 185.74 491.05 186.13 492.73 186.13C494.41 186.13 495.96 185.75 497.37 184.97C498.78 184.2 500.04 183.13 501.15 181.76C502.26 180.39 503.16 178.8 503.86 177.01C503.16 175.19 502.26 173.59 501.15 172.22C500.04 170.85 498.78 169.78 497.37 169.01C495.95 168.24 494.41 167.85 492.73 167.85C491.05 167.85 489.56 168.24 488.28 169.01C486.99 169.78 485.98 170.85 485.23 172.22C484.49 173.59 484.12 175.19 484.12 177.01ZM504.03 188.81L503.19 179.86L504.24 177L503.19 174.1L504.03 165.15H507.98L506.85 177L507.98 188.81H504.03Z" fill="black"/>
<path d="M515.63 161.59C514.82 161.59 514.15 161.34 513.61 160.85C513.07 160.36 512.81 159.75 512.81 159.02C512.81 158.29 513.08 157.64 513.61 157.15C514.14 156.66 514.81 156.41 515.63 156.41C516.45 156.41 517.16 156.66 517.69 157.15C518.22 157.64 518.49 158.26 518.49 159.02C518.49 159.78 518.22 160.36 517.69 160.85C517.16 161.34 516.47 161.59 515.63 161.59ZM513.74 165.07L515.63 165.41L517.56 165.07V188.81H513.74V165.07Z" fill="black"/>
<path d="M522.77 165.16H526.59L527.93 173.19V188.82H524.11V172.64L522.77 165.16ZM537.73 164.61C539.94 164.61 541.82 165.05 543.36 165.93C544.9 166.81 546.08 168.09 546.89 169.75C547.7 171.42 548.11 173.44 548.11 175.82V188.8H544.29V176.45C544.29 173.62 543.64 171.49 542.34 170.04C541.04 168.6 539.13 167.88 536.6 167.88C534.86 167.88 533.34 168.27 532.04 169.06C530.74 169.85 529.73 170.93 529.01 172.32C528.3 173.71 527.94 175.32 527.94 177.17L526.39 176.08C526.59 173.73 527.19 171.7 528.2 169.99C529.21 168.28 530.53 166.96 532.17 166.02C533.81 165.08 535.66 164.61 537.74 164.61H537.73Z" fill="black"/>
<path d="M589.67 177.01C589.05 179.48 588.11 181.63 586.83 183.48C585.55 185.33 584.01 186.77 582.21 187.81C580.4 188.85 578.41 189.36 576.22 189.36C573.89 189.36 571.84 188.84 570.04 187.78C568.25 186.73 566.84 185.28 565.82 183.43C564.8 181.58 564.29 179.44 564.29 177C564.29 174.56 564.8 172.38 565.82 170.53C566.84 168.68 568.25 167.23 570.04 166.18C571.83 165.13 573.89 164.6 576.22 164.6C578.41 164.6 580.4 165.12 582.21 166.15C584.02 167.19 585.56 168.63 586.85 170.48C588.14 172.33 589.08 174.5 589.67 176.99V177.01ZM568.24 177.01C568.24 178.8 568.61 180.39 569.35 181.76C570.09 183.13 571.11 184.2 572.4 184.97C573.69 185.74 575.17 186.13 576.85 186.13C578.53 186.13 580.08 185.75 581.49 184.97C582.9 184.2 584.16 183.13 585.27 181.76C586.38 180.39 587.28 178.8 587.98 177.01C587.28 175.19 586.38 173.59 585.27 172.22C584.16 170.85 582.9 169.78 581.49 169.01C580.07 168.24 578.53 167.85 576.85 167.85C575.17 167.85 573.68 168.24 572.4 169.01C571.11 169.78 570.1 170.85 569.35 172.22C568.61 173.59 568.24 175.19 568.24 177.01ZM588.15 188.81L587.31 179.86L588.36 177L587.31 174.1L588.15 165.15H592.1L590.97 177L592.1 188.81H588.15Z" fill="black"/>
<path d="M607.65 189.36C605.49 189.36 603.66 188.92 602.17 188.04C600.67 187.16 599.52 185.88 598.72 184.22C597.92 182.55 597.52 180.53 597.52 178.15V165.17H601.34V177.52C601.34 180.32 601.98 182.45 603.25 183.91C604.52 185.37 606.37 186.09 608.78 186.09C610.49 186.09 611.97 185.71 613.23 184.93C614.49 184.15 615.47 183.07 616.17 181.67C616.87 180.27 617.22 178.64 617.22 176.8L618.73 177.64C618.56 180.02 617.98 182.09 616.99 183.86C616 185.63 614.7 186.98 613.1 187.94C611.5 188.89 609.68 189.37 607.64 189.37L607.65 189.36ZM618.53 188.81L617.23 180.78V165.15H621.05V181.37L622.39 188.81H618.52H618.53Z" fill="black"/>
<path d="M664.29 179.82C663.98 181.7 663.22 183.36 662 184.8C660.78 186.24 659.24 187.36 657.38 188.16C655.52 188.96 653.44 189.36 651.14 189.36C648.51 189.36 646.19 188.84 644.19 187.78C642.19 186.73 640.62 185.28 639.48 183.43C638.35 181.58 637.78 179.44 637.78 177C637.78 174.56 638.35 172.38 639.48 170.53C640.61 168.68 642.18 167.23 644.19 166.18C646.19 165.13 648.51 164.6 651.14 164.6C653.44 164.6 655.52 165.01 657.38 165.82C659.24 166.63 660.78 167.75 662 169.16C663.22 170.58 663.98 172.24 664.29 174.14H660.34C659.92 172.18 658.88 170.63 657.21 169.5C655.54 168.37 653.52 167.8 651.14 167.8C649.23 167.8 647.57 168.18 646.16 168.93C644.74 169.69 643.65 170.74 642.88 172.1C642.11 173.46 641.72 175.09 641.72 177C641.72 178.91 642.1 180.46 642.88 181.83C643.65 183.2 644.74 184.27 646.16 185.02C647.57 185.78 649.23 186.15 651.14 186.15C653.55 186.15 655.59 185.58 657.25 184.43C658.92 183.28 659.95 181.74 660.34 179.81H664.29V179.82Z" fill="black"/>
<path d="M681.43 189.36C678.66 189.36 676.22 188.84 674.12 187.81C672.02 186.77 670.38 185.32 669.2 183.46C668.02 181.6 667.44 179.45 667.44 177.01C667.44 174.57 668.03 172.39 669.2 170.54C670.38 168.69 672.02 167.24 674.12 166.19C676.22 165.14 678.66 164.61 681.43 164.61C684.2 164.61 686.69 165.14 688.81 166.19C690.92 167.24 692.57 168.69 693.75 170.54C694.93 172.39 695.51 174.55 695.51 177.01C695.51 179.47 694.92 181.6 693.75 183.46C692.57 185.32 690.93 186.77 688.81 187.81C686.69 188.85 684.24 189.36 681.43 189.36ZM681.48 186.17C683.55 186.17 685.35 185.79 686.86 185.04C688.37 184.28 689.54 183.22 690.37 181.85C691.2 180.48 691.61 178.85 691.61 176.98C691.61 175.11 691.2 173.52 690.37 172.15C689.54 170.78 688.37 169.71 686.86 168.96C685.35 168.2 683.55 167.83 681.48 167.83C679.41 167.83 677.65 168.21 676.12 168.96C674.59 169.72 673.42 170.78 672.59 172.15C671.76 173.52 671.35 175.13 671.35 176.98C671.35 178.83 671.76 180.48 672.59 181.85C673.42 183.22 674.59 184.29 676.12 185.04C677.65 185.8 679.43 186.17 681.48 186.17Z" fill="black"/>
<path d="M712.87 189.36C710.15 189.36 707.75 188.84 705.66 187.78C703.57 186.72 701.93 185.28 700.74 183.43C699.55 181.58 698.95 179.43 698.95 176.96C698.95 174.49 699.51 172.38 700.63 170.53C701.75 168.68 703.3 167.23 705.27 166.18C707.24 165.13 709.53 164.6 712.14 164.6C714.75 164.6 716.91 165.16 718.8 166.28C720.69 167.4 722.16 168.98 723.21 171.01C724.26 173.04 724.79 175.4 724.79 178.09H701.85V175.02H723.2L720.93 176.45C720.85 174.66 720.43 173.12 719.67 171.83C718.91 170.54 717.89 169.55 716.6 168.85C715.31 168.15 713.8 167.8 712.06 167.8C710.21 167.8 708.6 168.17 707.23 168.91C705.86 169.65 704.79 170.7 704.04 172.04C703.28 173.38 702.91 174.97 702.91 176.79C702.91 178.61 703.34 180.35 704.19 181.75C705.04 183.15 706.26 184.24 707.82 185.01C709.39 185.78 711.24 186.17 713.37 186.17C715.33 186.17 717.24 185.84 719.11 185.18C720.97 184.52 722.65 183.63 724.13 182.51V185.54C722.67 186.72 720.93 187.65 718.9 188.33C716.87 189.02 714.86 189.36 712.87 189.36Z" fill="black"/>
<path d="M739.42 189.36C737.26 189.36 735.43 188.92 733.94 188.04C732.44 187.16 731.29 185.88 730.49 184.22C729.69 182.55 729.29 180.53 729.29 178.15V165.17H733.11V177.52C733.11 180.32 733.75 182.45 735.02 183.91C736.29 185.37 738.14 186.09 740.55 186.09C742.26 186.09 743.74 185.71 745 184.93C746.26 184.15 747.24 183.07 747.94 181.67C748.64 180.27 748.99 178.64 748.99 176.8L750.5 177.64C750.33 180.02 749.75 182.09 748.76 183.86C747.77 185.63 746.47 186.98 744.87 187.94C743.27 188.89 741.45 189.37 739.41 189.37L739.42 189.36ZM750.3 188.81L749 180.78V165.15H752.82V181.37L754.16 188.81H750.29H750.3Z" fill="black"/>
<path d="M758.29 165.16H762.11L763.45 173.23V188.82H759.63V172.52L758.29 165.17V165.16ZM776.06 165.07V168.56C775.53 168.39 774.9 168.27 774.19 168.18C773.48 168.1 772.78 168.05 772.11 168.05C770.43 168.05 768.94 168.43 767.63 169.18C766.33 169.94 765.3 171.04 764.56 172.48C763.82 173.92 763.45 175.62 763.45 177.59L762.36 176.08C762.42 174.43 762.69 172.9 763.18 171.5C763.67 170.1 764.36 168.89 765.24 167.87C766.12 166.85 767.18 166.05 768.41 165.47C769.64 164.9 771.04 164.61 772.61 164.61C773.23 164.61 773.85 164.65 774.48 164.74C775.11 164.82 775.64 164.94 776.06 165.08V165.07Z" fill="black"/>
<path d="M814.01 177.01C813.39 179.48 812.45 181.63 811.17 183.48C809.89 185.33 808.35 186.77 806.55 187.81C804.74 188.85 802.75 189.36 800.56 189.36C798.23 189.36 796.18 188.84 794.38 187.78C792.59 186.73 791.18 185.28 790.16 183.43C789.14 181.58 788.63 179.44 788.63 177C788.63 174.56 789.14 172.38 790.16 170.53C791.18 168.68 792.59 167.23 794.38 166.18C796.17 165.13 798.23 164.6 800.56 164.6C802.75 164.6 804.74 165.12 806.55 166.15C808.36 167.19 809.9 168.63 811.19 170.48C812.48 172.33 813.42 174.5 814.01 176.99V177.01ZM792.58 177.01C792.58 178.8 792.95 180.39 793.69 181.76C794.43 183.13 795.45 184.2 796.74 184.97C798.03 185.74 799.51 186.13 801.19 186.13C802.87 186.13 804.42 185.75 805.83 184.97C807.24 184.2 808.5 183.13 809.61 181.76C810.72 180.39 811.62 178.8 812.32 177.01C811.62 175.19 810.72 173.59 809.61 172.22C808.5 170.85 807.24 169.78 805.83 169.01C804.41 168.24 802.87 167.85 801.19 167.85C799.51 167.85 798.02 168.24 796.74 169.01C795.45 169.78 794.44 170.85 793.69 172.22C792.95 173.59 792.58 175.19 792.58 177.01ZM812.53 188.81L811.69 179.78L812.82 177.01L811.77 174.03L813.41 156.47H817.32L815.35 176.85L816.44 188.83H812.53V188.81Z" fill="black"/>
<path d="M832.03 189.36C829.87 189.36 828.04 188.92 826.55 188.04C825.05 187.16 823.9 185.88 823.1 184.22C822.3 182.55 821.9 180.53 821.9 178.15V165.17H825.72V177.52C825.72 180.32 826.36 182.45 827.63 183.91C828.9 185.37 830.75 186.09 833.16 186.09C834.87 186.09 836.35 185.71 837.61 184.93C838.87 184.15 839.85 183.07 840.55 181.67C841.25 180.27 841.6 178.64 841.6 176.8L843.11 177.64C842.94 180.02 842.36 182.09 841.37 183.86C840.38 185.63 839.08 186.98 837.48 187.94C835.88 188.89 834.06 189.37 832.02 189.37L832.03 189.36ZM842.91 188.81L841.61 180.78V165.15H845.43V181.37L846.77 188.81H842.9H842.91Z" fill="black"/>
<path d="M887.58 177.01C886.96 179.48 886.02 181.63 884.74 183.48C883.46 185.33 881.92 186.77 880.12 187.81C878.31 188.85 876.32 189.36 874.13 189.36C871.8 189.36 869.75 188.84 867.95 187.78C866.16 186.73 864.75 185.28 863.73 183.43C862.71 181.58 862.2 179.44 862.2 177C862.2 174.56 862.71 172.38 863.73 170.53C864.75 168.68 866.16 167.23 867.95 166.18C869.74 165.13 871.8 164.6 874.13 164.6C876.32 164.6 878.31 165.12 880.12 166.15C881.93 167.19 883.47 168.63 884.76 170.48C886.05 172.33 886.99 174.5 887.58 176.99V177.01ZM866.15 177.01C866.15 178.8 866.52 180.39 867.26 181.76C868 183.13 869.02 184.2 870.31 184.97C871.6 185.74 873.08 186.13 874.76 186.13C876.44 186.13 877.99 185.75 879.4 184.97C880.81 184.2 882.07 183.13 883.18 181.76C884.29 180.39 885.19 178.8 885.89 177.01C885.19 175.19 884.29 173.59 883.18 172.22C882.07 170.85 880.81 169.78 879.4 169.01C877.98 168.24 876.44 167.85 874.76 167.85C873.08 167.85 871.59 168.24 870.31 169.01C869.02 169.78 868.01 170.85 867.26 172.22C866.52 173.59 866.15 175.19 866.15 177.01ZM886.11 188.81L885.27 179.78L886.4 177.01L885.35 174.03L886.99 156.47H890.9L888.93 176.85L890.02 188.83H886.11V188.81Z" fill="black"/>
<path d="M897.71 161.59C896.9 161.59 896.23 161.34 895.69 160.85C895.15 160.36 894.89 159.75 894.89 159.02C894.89 158.29 895.16 157.64 895.69 157.15C896.22 156.66 896.89 156.41 897.71 156.41C898.53 156.41 899.24 156.66 899.77 157.15C900.3 157.64 900.57 158.26 900.57 159.02C900.57 159.78 900.3 160.36 899.77 160.85C899.24 161.34 898.55 161.59 897.71 161.59ZM895.81 165.07L897.7 165.41L899.63 165.07V188.81H895.81V165.07Z" fill="black"/>
<path d="M915.94 187.3C913.81 187.3 911.89 186.83 910.16 185.89C908.44 184.95 907.07 183.63 906.06 181.92C905.05 180.21 904.55 178.22 904.55 175.95C904.55 173.68 905.05 171.7 906.06 170C907.07 168.31 908.43 166.98 910.16 166.03C911.88 165.08 913.81 164.6 915.94 164.6C917.54 164.6 919.02 164.85 920.39 165.34C921.76 165.83 923.01 166.49 924.13 167.31C925.25 168.14 926.2 169.05 926.99 170.04C927.77 171.04 928.38 172.05 928.82 173.09C929.25 174.13 929.47 175.09 929.47 175.99C929.47 177.11 929.14 178.33 928.48 179.65C927.82 180.97 926.88 182.21 925.66 183.37C924.44 184.53 923.01 185.48 921.37 186.21C919.73 186.94 917.92 187.3 915.93 187.3H915.94ZM927.96 183.1V178.81L928.13 178.18V174.27L927.96 173.43V165.15H931.78V182.5C931.78 185.61 931.16 188.19 929.93 190.23C928.7 192.27 927.01 193.79 924.87 194.79C922.73 195.78 920.31 196.28 917.62 196.28C915.55 196.28 913.64 195.99 911.91 195.42C910.17 194.85 908.51 193.97 906.91 192.79V189.43C908.59 190.77 910.32 191.72 912.1 192.27C913.88 192.82 915.64 193.09 917.37 193.09C920.82 193.09 923.44 192.2 925.25 190.42C927.06 188.64 927.96 186.2 927.96 183.09V183.1ZM916.95 184.23C919.14 184.23 921.16 183.58 923.02 182.28C924.88 180.98 926.58 178.87 928.13 175.96C926.62 172.99 924.92 170.87 923.05 169.59C921.18 168.31 919.14 167.68 916.96 167.68C915.14 167.68 913.6 168.04 912.34 168.75C911.08 169.46 910.12 170.44 909.46 171.67C908.8 172.9 908.47 174.33 908.47 175.96C908.47 177.59 908.8 178.98 909.46 180.23C910.12 181.48 911.08 182.46 912.34 183.17C913.6 183.88 915.14 184.24 916.96 184.24L916.95 184.23Z" fill="black"/>
<path d="M939.85 161.59C939.04 161.59 938.37 161.34 937.83 160.85C937.29 160.36 937.03 159.75 937.03 159.02C937.03 158.29 937.3 157.64 937.83 157.15C938.36 156.66 939.03 156.41 939.85 156.41C940.67 156.41 941.38 156.66 941.91 157.15C942.44 157.64 942.71 158.26 942.71 159.02C942.71 159.78 942.44 160.36 941.91 160.85C941.38 161.34 940.69 161.59 939.85 161.59ZM937.96 165.07L939.85 165.41L941.78 165.07V188.81H937.96V165.07Z" fill="black"/>
<path d="M945.1 168.27V166.42L950.31 165.45L951.82 159.06H954.13V165.15H965.69V168.26H954.13V180.28C954.13 182.41 954.6 183.9 955.54 184.76C956.48 185.61 957.94 186.04 959.93 186.04C961.19 186.04 962.31 185.89 963.29 185.58C964.27 185.27 965.21 184.82 966.11 184.24V187.64C965.44 188.06 964.45 188.45 963.15 188.82C961.85 189.18 960.51 189.37 959.14 189.37C956.98 189.37 955.26 189.01 953.97 188.28C952.68 187.55 951.75 186.54 951.18 185.25C950.6 183.96 950.32 182.52 950.32 180.92V168.27H945.11H945.1Z" fill="black"/>
<path d="M993.43 177.01C992.81 179.48 991.87 181.63 990.59 183.48C989.31 185.33 987.77 186.77 985.97 187.81C984.16 188.85 982.17 189.36 979.98 189.36C977.65 189.36 975.6 188.84 973.8 187.78C972.01 186.73 970.6 185.28 969.58 183.43C968.56 181.58 968.05 179.44 968.05 177C968.05 174.56 968.56 172.38 969.58 170.53C970.6 168.68 972.01 167.23 973.8 166.18C975.59 165.13 977.65 164.6 979.98 164.6C982.17 164.6 984.16 165.12 985.97 166.15C987.78 167.19 989.32 168.63 990.61 170.48C991.9 172.33 992.84 174.5 993.43 176.99V177.01ZM972 177.01C972 178.8 972.37 180.39 973.11 181.76C973.85 183.13 974.87 184.2 976.16 184.97C977.45 185.74 978.93 186.13 980.61 186.13C982.29 186.13 983.84 185.75 985.25 184.97C986.66 184.2 987.92 183.13 989.03 181.76C990.14 180.39 991.04 178.8 991.74 177.01C991.04 175.19 990.14 173.59 989.03 172.22C987.92 170.85 986.66 169.78 985.25 169.01C983.83 168.24 982.29 167.85 980.61 167.85C978.93 167.85 977.44 168.24 976.16 169.01C974.87 169.78 973.86 170.85 973.11 172.22C972.37 173.59 972 175.19 972 177.01ZM991.91 188.81L991.07 179.86L992.12 177L991.07 174.1L991.91 165.15H995.86L994.73 177L995.86 188.81H991.91Z" fill="black"/>
<path d="M1001.62 156.46H1005.44V188.81H1001.62V156.46Z" fill="black"/>
<path d="M1224.71 114.12L1224.66 72.08C1224.66 69.86 1222.05 68.68 1220.38 70.13C1209.84 79.25 1199.3 88.37 1188.76 97.49C1188.76 97.49 1188.76 97.49 1188.77 97.49C1184.41 100.64 1180.86 105.35 1179.69 112.81C1178.86 118.06 1179.86 123.49 1182.74 127.96C1191.15 141.02 1208.72 142.03 1218.62 131.51C1222.25 127.65 1224.26 122.86 1224.69 117.96C1224.69 117.96 1224.7 117.96 1224.71 117.96C1224.71 117.91 1224.71 117.86 1224.71 117.81C1224.81 116.58 1224.8 115.34 1224.71 114.11V114.12Z" fill="black"/>
<path d="M1103.01 0.319946C1101.24 0.319946 1099.79 1.67995 1099.64 3.43995C1099.17 8.80995 1098.38 14.1599 1097.23 19.4099C1095.37 27.8999 1093.37 32.8099 1091.91 36.3899C1091.02 38.5799 1090.79 39.1799 1090.6 40.1299C1090.48 40.7299 1090.41 41.0799 1090.53 41.5999C1090.88 43.0799 1092.27 44.0799 1093.79 44.0799H1135.3C1138.3 44.0799 1141.2 42.9999 1143.48 41.0399L1183.85 6.25995C1186.22 4.20995 1184.78 0.319946 1181.64 0.319946H1102.99H1103.01Z" fill="black"/>
<path d="M1224.07 1.73995C1223.21 0.639946 1221.75 0.379946 1220.86 0.319946C1218.69 0.319946 1216.52 0.319946 1214.35 0.319946C1214.02 0.319946 1213.65 0.339946 1213.27 0.409946C1211.28 0.749946 1209.93 1.98995 1209.28 2.69995C1170.28 36.3399 1131.27 69.9799 1092.27 103.62C1090.58 105.08 1090.05 107.47 1090.98 109.5C1092.33 112.41 1093.65 115.75 1094.77 119.51C1096.38 124.9 1097.21 129.86 1097.61 134.14C1097.85 136.71 1100.02 138.67 1102.6 138.67H1115.69C1117.26 138.67 1118.79 138.11 1119.98 137.08C1154 107.98 1188.02 78.8799 1222.04 49.7799C1223.76 48.3099 1224.75 46.1599 1224.75 43.8999C1224.75 30.5399 1224.75 17.1699 1224.76 3.80995C1224.76 3.29995 1224.63 2.46995 1224.06 1.74995L1224.07 1.73995Z" fill="black"/>
<path d="M1085.68 78.0499C1085.89 63.7399 1081.16 54.4499 1078.04 48.2999C1076.65 45.5666 1076.05 43.7299 1076.24 42.7899C1076.43 41.8599 1076.65 41.2599 1077.53 39.0899C1078.98 35.5399 1080.96 30.6699 1082.81 22.2399C1084.13 16.2199 1085 10.0699 1085.42 3.90995C1085.55 1.96995 1084.04 0.319946 1082.09 0.319946H1044.87C1043.17 0.319946 1041.73 1.59995 1041.56 3.29995C1041.25 6.51995 1040.75 9.71995 1040.06 12.8699C1039.01 17.6399 1038.08 19.9299 1037 22.5899C1035.82 25.4899 1034.35 29.1099 1033.33 34.1999C1030.07 50.4899 1035.46 61.0999 1039.03 68.1199C1041.27 72.53 1041.97 74.0799 1041.93 77.4199C1041.88 80.5399 1041.23 81.7799 1039.29 85.4599C1036.07 91.5599 1030.68 101.77 1033.25 117.53C1034.15 123.04 1035.64 127.04 1036.84 130.25C1037.95 133.21 1038.9 135.77 1039.77 140.73C1040.4 144.37 1040.77 148.1 1040.87 151.83C1040.88 152.3 1040.9 153.34 1040.89 154.62C1040.86 157.06 1040.7 159.56 1040.42 162.1C1040.2 164.08 1041.73 165.81 1043.72 165.81H1080.97C1082.72 165.81 1084.16 164.46 1084.3 162.71C1084.5 160.17 1084.62 157.65 1084.65 155.16C1084.67 153.26 1084.65 151.68 1084.62 150.72C1084.48 144.86 1083.89 138.97 1082.89 133.2C1081.33 124.25 1079.32 118.87 1077.85 114.93C1076.96 112.56 1076.65 111.68 1076.45 110.47C1076.32 109.65 1076.34 109.29 1076.33 109.29C1076.47 108.75 1077.36 107.08 1078 105.86C1080.99 100.2 1085.5 91.6599 1085.69 78.0299L1085.68 78.0499Z" fill="black"/>
<path d="M1101.85 152.53C1100.29 152.53 1099.02 153.78 1099.01 155.34C1098.96 159.14 1098.73 163.15 1098.31 167.26L1097.48 175.49C1097.21 178.16 1094.96 180.19 1092.28 180.19H1043.45C1041.21 180.19 1039.39 182.01 1039.39 184.25V192.38C1039.39 194.54 1041.14 196.29 1043.3 196.29H1220.11C1222.7 196.29 1224.8 194.19 1224.8 191.6V157.11C1224.8 154.58 1222.75 152.53 1220.22 152.53H1101.86H1101.85Z" fill="black"/>
</g>
<defs>
<clipPath id="clip0_44_701">
<rect width="1224.8" height="196.29" fill="white"/>
</clipPath>
</defs>
</svg>
