<svg width="1225" height="197" viewBox="0 0 1225 197" fill="none" xmlns="http://www.w3.org/2000/svg">
<g clip-path="url(#clip0_44_705)">
<path d="M45.4398 0.350098H0.00976562V132.38H123.24V91.8901H45.4398V0.350098Z" fill="#160833"/>
<path d="M184.32 0.350098L126.4 132.37H174.8L183.84 110.19H245.35L254.38 132.37H302.79L244.87 0.350098H184.32ZM198.54 74.1101L214.6 34.6901L230.66 74.1101H198.55H198.54Z" fill="#160833"/>
<path d="M414.62 86.4401L383.06 0.350098H312.82V132.38H355.95V40.1701L392.04 132.38H436.92L473 39.7401V132.38H516.14V0.350098H445.9L414.62 86.4401Z" fill="#160833"/>
<path d="M584.08 0.350098L526.16 132.37H574.57L583.6 110.19H645.11L654.14 132.37H702.55L644.64 0.350098H584.09H584.08ZM598.3 74.1101L614.36 34.6901L630.42 74.1101H598.31H598.3Z" fill="#160833"/>
<path d="M823.04 82.9101C830.96 79.2701 837.12 74.1401 841.52 67.5101C845.92 60.8801 848.12 53.2201 848.12 44.5401C848.12 35.8601 845.91 27.8701 841.52 21.3001C837.12 14.7201 830.96 9.5901 823.04 5.8901C815.12 2.1901 805.88 0.350098 795.32 0.350098H712.58V132.37H758.01V88.3601H771.52L801.49 132.37H853.42L819.34 84.3401C820.59 83.8801 821.86 83.4501 823.05 82.9101H823.04ZM758.01 32.2101H788.28C792.74 32.2101 796.2 33.2701 798.67 35.3801C801.13 37.4901 802.36 40.5401 802.36 44.5301C802.36 48.5201 801.13 51.5701 798.67 53.6801C796.2 55.7901 792.74 56.8501 788.28 56.8501H758.01V32.2001V32.2101Z" fill="#160833"/>
<path d="M955.68 132.38H1007.61L973.53 84.3501C974.78 83.8901 976.05 83.4601 977.24 82.9201C985.16 79.2801 991.32 74.1501 995.72 67.5201C1000.12 60.8901 1002.32 53.2301 1002.32 44.5501C1002.32 35.8701 1000.11 27.8801 995.72 21.3101C991.32 14.7301 985.16 9.60011 977.24 5.90011C969.32 2.20011 960.08 0.360107 949.52 0.360107H866.78V132.38H912.21V88.3701H925.72L955.69 132.38H955.68ZM912.21 32.2101H942.48C946.94 32.2101 950.4 33.2701 952.87 35.3801C955.33 37.4901 956.56 40.5401 956.56 44.5301C956.56 48.5201 955.33 51.5701 952.87 53.6801C950.41 55.7901 946.94 56.8501 942.48 56.8501H912.21V32.2001V32.2101Z" fill="#160833"/>
<path d="M343.69 157.65V187.4L341.93 185.68H365.76V189.17H339.79V157.66H343.7L343.69 157.65Z" fill="#160833"/>
<path d="M363.9 167.74L366.84 161.23L367.01 162.62C366.53 162.62 366.09 162.5 365.69 162.26C365.29 162.02 364.96 161.7 364.72 161.29C364.48 160.88 364.36 160.44 364.36 159.97C364.36 159.5 364.48 159.06 364.72 158.67C364.96 158.28 365.28 157.96 365.69 157.72C366.1 157.48 366.54 157.36 367.01 157.36C367.51 157.36 367.97 157.48 368.38 157.72C368.79 157.96 369.11 158.28 369.35 158.69C369.59 159.1 369.71 159.58 369.71 160.14C369.71 160.64 369.61 161.18 369.42 161.76C369.22 162.34 368.85 163.11 368.29 164.09L366.23 167.75H363.92L363.9 167.74Z" fill="#160833"/>
<path d="M374.53 156.81H378.35V189.16H374.53V156.81ZM388.14 164.96C390.35 164.96 392.23 165.4 393.77 166.28C395.31 167.16 396.49 168.44 397.3 170.1C398.11 171.77 398.52 173.79 398.52 176.17V189.15H394.65V176.8C394.65 173.97 394 171.84 392.7 170.39C391.4 168.95 389.5 168.23 387.01 168.23C385.27 168.23 383.75 168.62 382.45 169.41C381.15 170.2 380.14 171.28 379.42 172.67C378.71 174.06 378.35 175.67 378.35 177.52L376.8 176.43C377 174.08 377.6 172.05 378.61 170.34C379.62 168.63 380.94 167.31 382.58 166.37C384.22 165.43 386.07 164.96 388.15 164.96H388.14Z" fill="#160833"/>
<path d="M414.24 189.71C412.08 189.71 410.25 189.27 408.76 188.39C407.26 187.51 406.11 186.23 405.31 184.57C404.51 182.9 404.11 180.88 404.11 178.5V165.52H407.93V177.87C407.93 180.67 408.57 182.8 409.84 184.26C411.11 185.72 412.96 186.44 415.37 186.44C417.08 186.44 418.56 186.06 419.82 185.28C421.08 184.5 422.06 183.42 422.76 182.02C423.46 180.62 423.81 178.99 423.81 177.15L425.32 177.99C425.15 180.37 424.57 182.44 423.58 184.21C422.59 185.98 421.29 187.33 419.69 188.29C418.09 189.24 416.27 189.72 414.23 189.72L414.24 189.71ZM425.12 189.17L423.82 181.14V165.51H427.64V181.73L428.98 189.17H425.11H425.12Z" fill="#160833"/>
<path d="M433.1 165.51H436.92L438.26 173.54V189.17H434.44V172.99L433.1 165.51ZM447.31 164.96C449.35 164.96 451.1 165.4 452.54 166.28C453.98 167.16 455.08 168.44 455.82 170.1C456.56 171.77 456.93 173.79 456.93 176.17V189.15H453.11V176.8C453.11 173.97 452.52 171.84 451.34 170.39C450.16 168.95 448.44 168.23 446.17 168.23C444.57 168.23 443.19 168.62 442.01 169.41C440.83 170.19 439.92 171.28 439.26 172.67C438.6 174.06 438.27 175.67 438.27 177.52L436.72 176.43C436.92 174.08 437.48 172.05 438.42 170.34C439.36 168.63 440.59 167.31 442.12 166.37C443.65 165.43 445.38 164.96 447.31 164.96ZM465.96 164.96C468 164.96 469.75 165.4 471.19 166.28C472.63 167.16 473.73 168.44 474.47 170.1C475.21 171.77 475.58 173.79 475.58 176.17V189.15H471.76V176.8C471.76 173.97 471.17 171.84 470 170.39C468.82 168.95 467.1 168.23 464.83 168.23C463.23 168.23 461.85 168.62 460.67 169.41C459.49 170.19 458.58 171.28 457.92 172.67C457.26 174.06 456.93 175.67 456.93 177.52L455.38 176.43C455.58 174.08 456.14 172.05 457.08 170.34C458.02 168.63 459.25 167.31 460.78 166.37C462.31 165.43 464.04 164.96 465.97 164.96H465.96Z" fill="#160833"/>
<path d="M505.55 177.36C504.93 179.83 503.99 181.98 502.71 183.83C501.43 185.68 499.89 187.12 498.09 188.16C496.28 189.2 494.29 189.71 492.1 189.71C489.77 189.71 487.72 189.19 485.92 188.13C484.13 187.08 482.72 185.63 481.7 183.78C480.68 181.93 480.17 179.79 480.17 177.35C480.17 174.91 480.68 172.73 481.7 170.88C482.72 169.03 484.13 167.58 485.92 166.53C487.71 165.48 489.77 164.95 492.1 164.95C494.29 164.95 496.28 165.47 498.09 166.5C499.9 167.54 501.44 168.98 502.73 170.83C504.02 172.68 504.96 174.85 505.55 177.34V177.36ZM484.12 177.36C484.12 179.15 484.49 180.74 485.23 182.11C485.97 183.48 486.99 184.55 488.28 185.32C489.57 186.09 491.05 186.48 492.73 186.48C494.41 186.48 495.96 186.1 497.37 185.32C498.78 184.55 500.04 183.48 501.15 182.11C502.26 180.74 503.16 179.15 503.86 177.36C503.16 175.54 502.26 173.94 501.15 172.57C500.04 171.2 498.78 170.13 497.37 169.36C495.95 168.59 494.41 168.2 492.73 168.2C491.05 168.2 489.56 168.59 488.28 169.36C486.99 170.13 485.98 171.2 485.23 172.57C484.49 173.94 484.12 175.54 484.12 177.36ZM504.03 189.17L503.19 180.22L504.24 177.36L503.19 174.46L504.03 165.51H507.98L506.85 177.36L507.98 189.17H504.03Z" fill="#160833"/>
<path d="M515.63 161.94C514.82 161.94 514.15 161.69 513.61 161.2C513.07 160.71 512.81 160.1 512.81 159.37C512.81 158.64 513.08 157.99 513.61 157.5C514.14 157.01 514.81 156.76 515.63 156.76C516.45 156.76 517.16 157.01 517.69 157.5C518.22 157.99 518.49 158.61 518.49 159.37C518.49 160.13 518.22 160.71 517.69 161.2C517.16 161.69 516.47 161.94 515.63 161.94ZM513.74 165.43L515.63 165.77L517.56 165.43V189.17H513.74V165.43Z" fill="#160833"/>
<path d="M522.77 165.51H526.59L527.93 173.54V189.17H524.11V172.99L522.77 165.51ZM537.73 164.96C539.94 164.96 541.82 165.4 543.36 166.28C544.9 167.16 546.08 168.44 546.89 170.1C547.7 171.77 548.11 173.79 548.11 176.17V189.15H544.29V176.8C544.29 173.97 543.64 171.84 542.34 170.39C541.04 168.95 539.13 168.23 536.6 168.23C534.86 168.23 533.34 168.62 532.04 169.41C530.74 170.2 529.73 171.28 529.01 172.67C528.3 174.06 527.94 175.67 527.94 177.52L526.39 176.43C526.59 174.08 527.19 172.05 528.2 170.34C529.21 168.63 530.53 167.31 532.17 166.37C533.81 165.43 535.66 164.96 537.74 164.96H537.73Z" fill="#160833"/>
<path d="M589.67 177.36C589.05 179.83 588.11 181.98 586.83 183.83C585.55 185.68 584.01 187.12 582.21 188.16C580.4 189.2 578.41 189.71 576.22 189.71C573.89 189.71 571.84 189.19 570.04 188.13C568.25 187.08 566.84 185.63 565.82 183.78C564.8 181.93 564.29 179.79 564.29 177.35C564.29 174.91 564.8 172.73 565.82 170.88C566.84 169.03 568.25 167.58 570.04 166.53C571.83 165.48 573.89 164.95 576.22 164.95C578.41 164.95 580.4 165.47 582.21 166.5C584.02 167.54 585.56 168.98 586.85 170.83C588.14 172.68 589.08 174.85 589.67 177.34V177.36ZM568.24 177.36C568.24 179.15 568.61 180.74 569.35 182.11C570.09 183.48 571.11 184.55 572.4 185.32C573.69 186.09 575.17 186.48 576.85 186.48C578.53 186.48 580.08 186.1 581.49 185.32C582.9 184.55 584.16 183.48 585.27 182.11C586.38 180.74 587.28 179.15 587.98 177.36C587.28 175.54 586.38 173.94 585.27 172.57C584.16 171.2 582.9 170.13 581.49 169.36C580.07 168.59 578.53 168.2 576.85 168.2C575.17 168.2 573.68 168.59 572.4 169.36C571.11 170.13 570.1 171.2 569.35 172.57C568.61 173.94 568.24 175.54 568.24 177.36ZM588.15 189.17L587.31 180.22L588.36 177.36L587.31 174.46L588.15 165.51H592.1L590.97 177.36L592.1 189.17H588.15Z" fill="#160833"/>
<path d="M607.65 189.71C605.49 189.71 603.66 189.27 602.17 188.39C600.67 187.51 599.52 186.23 598.72 184.57C597.92 182.9 597.52 180.88 597.52 178.5V165.52H601.34V177.87C601.34 180.67 601.98 182.8 603.25 184.26C604.52 185.72 606.37 186.44 608.78 186.44C610.49 186.44 611.97 186.06 613.23 185.28C614.49 184.5 615.47 183.42 616.17 182.02C616.87 180.62 617.22 178.99 617.22 177.15L618.73 177.99C618.56 180.37 617.98 182.44 616.99 184.21C616 185.98 614.7 187.33 613.1 188.29C611.5 189.24 609.68 189.72 607.64 189.72L607.65 189.71ZM618.53 189.17L617.23 181.14V165.51H621.05V181.73L622.39 189.17H618.52H618.53Z" fill="#160833"/>
<path d="M664.29 180.18C663.98 182.06 663.22 183.72 662 185.16C660.78 186.6 659.24 187.72 657.38 188.52C655.52 189.32 653.44 189.72 651.14 189.72C648.51 189.72 646.19 189.2 644.19 188.14C642.19 187.09 640.62 185.64 639.48 183.79C638.35 181.94 637.78 179.8 637.78 177.36C637.78 174.92 638.35 172.74 639.48 170.89C640.61 169.04 642.18 167.59 644.19 166.54C646.19 165.49 648.51 164.96 651.14 164.96C653.44 164.96 655.52 165.37 657.38 166.18C659.24 166.99 660.78 168.11 662 169.52C663.22 170.94 663.98 172.6 664.29 174.5H660.34C659.92 172.54 658.88 170.99 657.21 169.86C655.54 168.73 653.52 168.16 651.14 168.16C649.23 168.16 647.57 168.54 646.16 169.29C644.74 170.05 643.65 171.1 642.88 172.46C642.11 173.82 641.72 175.45 641.72 177.36C641.72 179.27 642.1 180.82 642.88 182.19C643.65 183.56 644.74 184.63 646.16 185.38C647.57 186.14 649.23 186.51 651.14 186.51C653.55 186.51 655.59 185.94 657.25 184.79C658.92 183.64 659.95 182.1 660.34 180.17H664.29V180.18Z" fill="#160833"/>
<path d="M681.43 189.71C678.66 189.71 676.22 189.19 674.12 188.16C672.02 187.12 670.38 185.67 669.2 183.81C668.02 181.95 667.44 179.8 667.44 177.36C667.44 174.92 668.03 172.74 669.2 170.89C670.38 169.04 672.02 167.59 674.12 166.54C676.22 165.49 678.66 164.96 681.43 164.96C684.2 164.96 686.69 165.49 688.81 166.54C690.92 167.59 692.57 169.04 693.75 170.89C694.93 172.74 695.51 174.9 695.51 177.36C695.51 179.82 694.92 181.95 693.75 183.81C692.57 185.67 690.93 187.12 688.81 188.16C686.69 189.2 684.24 189.71 681.43 189.71ZM681.48 186.52C683.55 186.52 685.35 186.14 686.86 185.39C688.37 184.63 689.54 183.57 690.37 182.2C691.2 180.83 691.61 179.2 691.61 177.33C691.61 175.46 691.2 173.87 690.37 172.5C689.54 171.13 688.37 170.06 686.86 169.31C685.35 168.55 683.55 168.18 681.48 168.18C679.41 168.18 677.65 168.56 676.12 169.31C674.59 170.07 673.42 171.13 672.59 172.5C671.76 173.87 671.35 175.48 671.35 177.33C671.35 179.18 671.76 180.83 672.59 182.2C673.42 183.57 674.59 184.64 676.12 185.39C677.65 186.15 679.43 186.52 681.48 186.52Z" fill="#160833"/>
<path d="M712.87 189.71C710.15 189.71 707.75 189.19 705.66 188.13C703.57 187.07 701.93 185.63 700.74 183.78C699.55 181.93 698.95 179.78 698.95 177.31C698.95 174.84 699.51 172.73 700.63 170.88C701.75 169.03 703.3 167.58 705.27 166.53C707.24 165.48 709.53 164.95 712.14 164.95C714.75 164.95 716.91 165.51 718.8 166.63C720.69 167.75 722.16 169.33 723.21 171.36C724.26 173.39 724.79 175.75 724.79 178.44H701.85V175.37H723.2L720.93 176.8C720.85 175.01 720.43 173.47 719.67 172.18C718.91 170.89 717.89 169.9 716.6 169.2C715.31 168.5 713.8 168.15 712.06 168.15C710.21 168.15 708.6 168.52 707.23 169.26C705.86 170 704.79 171.05 704.04 172.39C703.28 173.73 702.91 175.32 702.91 177.14C702.91 178.96 703.34 180.7 704.19 182.1C705.04 183.5 706.26 184.59 707.82 185.36C709.39 186.13 711.24 186.52 713.37 186.52C715.33 186.52 717.24 186.19 719.11 185.53C720.97 184.87 722.65 183.98 724.13 182.86V185.89C722.67 187.07 720.93 188 718.9 188.68C716.87 189.37 714.86 189.71 712.87 189.71Z" fill="#160833"/>
<path d="M739.42 189.71C737.26 189.71 735.43 189.27 733.94 188.39C732.44 187.51 731.29 186.23 730.49 184.57C729.69 182.9 729.29 180.88 729.29 178.5V165.52H733.11V177.87C733.11 180.67 733.75 182.8 735.02 184.26C736.29 185.72 738.14 186.44 740.55 186.44C742.26 186.44 743.74 186.06 745 185.28C746.26 184.5 747.24 183.42 747.94 182.02C748.64 180.62 748.99 178.99 748.99 177.15L750.5 177.99C750.33 180.37 749.75 182.44 748.76 184.21C747.77 185.98 746.47 187.33 744.87 188.29C743.27 189.24 741.45 189.72 739.41 189.72L739.42 189.71ZM750.3 189.17L749 181.14V165.51H752.82V181.73L754.16 189.17H750.29H750.3Z" fill="#160833"/>
<path d="M758.29 165.51H762.11L763.45 173.58V189.17H759.63V172.87L758.29 165.52V165.51ZM776.06 165.43V168.92C775.53 168.75 774.9 168.63 774.19 168.54C773.48 168.46 772.78 168.41 772.11 168.41C770.43 168.41 768.94 168.79 767.63 169.54C766.33 170.3 765.3 171.4 764.56 172.84C763.82 174.28 763.45 175.98 763.45 177.95L762.36 176.44C762.42 174.79 762.69 173.26 763.18 171.86C763.67 170.46 764.36 169.25 765.24 168.23C766.12 167.21 767.18 166.41 768.41 165.83C769.64 165.26 771.04 164.97 772.61 164.97C773.23 164.97 773.85 165.01 774.48 165.1C775.11 165.18 775.64 165.3 776.06 165.44V165.43Z" fill="#160833"/>
<path d="M814.01 177.36C813.39 179.83 812.45 181.98 811.17 183.83C809.89 185.68 808.35 187.12 806.55 188.16C804.74 189.2 802.75 189.71 800.56 189.71C798.23 189.71 796.18 189.19 794.38 188.13C792.59 187.08 791.18 185.63 790.16 183.78C789.14 181.93 788.63 179.79 788.63 177.35C788.63 174.91 789.14 172.73 790.16 170.88C791.18 169.03 792.59 167.58 794.38 166.53C796.17 165.48 798.23 164.95 800.56 164.95C802.75 164.95 804.74 165.47 806.55 166.5C808.36 167.54 809.9 168.98 811.19 170.83C812.48 172.68 813.42 174.85 814.01 177.34V177.36ZM792.58 177.36C792.58 179.15 792.95 180.74 793.69 182.11C794.43 183.48 795.45 184.55 796.74 185.32C798.03 186.09 799.51 186.48 801.19 186.48C802.87 186.48 804.42 186.1 805.83 185.32C807.24 184.55 808.5 183.48 809.61 182.11C810.72 180.74 811.62 179.15 812.32 177.36C811.62 175.54 810.72 173.94 809.61 172.57C808.5 171.2 807.24 170.13 805.83 169.36C804.41 168.59 802.87 168.2 801.19 168.2C799.51 168.2 798.02 168.59 796.74 169.36C795.45 170.13 794.44 171.2 793.69 172.57C792.95 173.94 792.58 175.54 792.58 177.36ZM812.53 189.17L811.69 180.14L812.82 177.37L811.77 174.39L813.41 156.83H817.32L815.35 177.21L816.44 189.19H812.53V189.17Z" fill="#160833"/>
<path d="M832.03 189.71C829.87 189.71 828.04 189.27 826.55 188.39C825.05 187.51 823.9 186.23 823.1 184.57C822.3 182.9 821.9 180.88 821.9 178.5V165.52H825.72V177.87C825.72 180.67 826.36 182.8 827.63 184.26C828.9 185.72 830.75 186.44 833.16 186.44C834.87 186.44 836.35 186.06 837.61 185.28C838.87 184.5 839.85 183.42 840.55 182.02C841.25 180.62 841.6 178.99 841.6 177.15L843.11 177.99C842.94 180.37 842.36 182.44 841.37 184.21C840.38 185.98 839.08 187.33 837.48 188.29C835.88 189.24 834.06 189.72 832.02 189.72L832.03 189.71ZM842.91 189.17L841.61 181.14V165.51H845.43V181.73L846.77 189.17H842.9H842.91Z" fill="#160833"/>
<path d="M887.58 177.36C886.96 179.83 886.02 181.98 884.74 183.83C883.46 185.68 881.92 187.12 880.12 188.16C878.31 189.2 876.32 189.71 874.13 189.71C871.8 189.71 869.75 189.19 867.95 188.13C866.16 187.08 864.75 185.63 863.73 183.78C862.71 181.93 862.2 179.79 862.2 177.35C862.2 174.91 862.71 172.73 863.73 170.88C864.75 169.03 866.16 167.58 867.95 166.53C869.74 165.48 871.8 164.95 874.13 164.95C876.32 164.95 878.31 165.47 880.12 166.5C881.93 167.54 883.47 168.98 884.76 170.83C886.05 172.68 886.99 174.85 887.58 177.34V177.36ZM866.15 177.36C866.15 179.15 866.52 180.74 867.26 182.11C868 183.48 869.02 184.55 870.31 185.32C871.6 186.09 873.08 186.48 874.76 186.48C876.44 186.48 877.99 186.1 879.4 185.32C880.81 184.55 882.07 183.48 883.18 182.11C884.29 180.74 885.19 179.15 885.89 177.36C885.19 175.54 884.29 173.94 883.18 172.57C882.07 171.2 880.81 170.13 879.4 169.36C877.98 168.59 876.44 168.2 874.76 168.2C873.08 168.2 871.59 168.59 870.31 169.36C869.02 170.13 868.01 171.2 867.26 172.57C866.52 173.94 866.15 175.54 866.15 177.36ZM886.11 189.17L885.27 180.14L886.4 177.37L885.35 174.39L886.99 156.83H890.9L888.93 177.21L890.02 189.19H886.11V189.17Z" fill="#160833"/>
<path d="M897.71 161.94C896.9 161.94 896.23 161.69 895.69 161.2C895.15 160.71 894.89 160.1 894.89 159.37C894.89 158.64 895.16 157.99 895.69 157.5C896.22 157.01 896.89 156.76 897.71 156.76C898.53 156.76 899.24 157.01 899.77 157.5C900.3 157.99 900.57 158.61 900.57 159.37C900.57 160.13 900.3 160.71 899.77 161.2C899.24 161.69 898.55 161.94 897.71 161.94ZM895.81 165.43L897.7 165.77L899.63 165.43V189.17H895.81V165.43Z" fill="#160833"/>
<path d="M915.94 187.66C913.81 187.66 911.89 187.19 910.16 186.25C908.44 185.31 907.07 183.99 906.06 182.28C905.05 180.57 904.55 178.58 904.55 176.31C904.55 174.04 905.05 172.06 906.06 170.36C907.07 168.67 908.43 167.34 910.16 166.39C911.88 165.44 913.81 164.96 915.94 164.96C917.54 164.96 919.02 165.21 920.39 165.7C921.76 166.19 923.01 166.85 924.13 167.67C925.25 168.5 926.2 169.41 926.99 170.4C927.77 171.4 928.38 172.41 928.82 173.45C929.25 174.49 929.47 175.45 929.47 176.35C929.47 177.47 929.14 178.69 928.48 180.01C927.82 181.33 926.88 182.57 925.66 183.73C924.44 184.89 923.01 185.84 921.37 186.57C919.73 187.3 917.92 187.66 915.93 187.66H915.94ZM927.96 183.45V179.16L928.13 178.53V174.62L927.96 173.78V165.5H931.78V182.85C931.78 185.96 931.16 188.54 929.93 190.58C928.7 192.62 927.01 194.14 924.87 195.14C922.73 196.13 920.31 196.63 917.62 196.63C915.55 196.63 913.64 196.34 911.91 195.77C910.17 195.2 908.51 194.32 906.91 193.14V189.78C908.59 191.12 910.32 192.07 912.1 192.62C913.88 193.17 915.64 193.44 917.37 193.44C920.82 193.44 923.44 192.55 925.25 190.77C927.06 188.99 927.96 186.55 927.96 183.44V183.45ZM916.95 184.59C919.14 184.59 921.16 183.94 923.02 182.64C924.88 181.34 926.58 179.23 928.13 176.32C926.62 173.35 924.92 171.23 923.05 169.95C921.18 168.67 919.14 168.04 916.96 168.04C915.14 168.04 913.6 168.4 912.34 169.11C911.08 169.82 910.12 170.8 909.46 172.03C908.8 173.26 908.47 174.69 908.47 176.32C908.47 177.95 908.8 179.34 909.46 180.59C910.12 181.84 911.08 182.82 912.34 183.53C913.6 184.24 915.14 184.6 916.96 184.6L916.95 184.59Z" fill="#160833"/>
<path d="M939.85 161.94C939.04 161.94 938.37 161.69 937.83 161.2C937.29 160.71 937.03 160.1 937.03 159.37C937.03 158.64 937.3 157.99 937.83 157.5C938.36 157.01 939.03 156.76 939.85 156.76C940.67 156.76 941.38 157.01 941.91 157.5C942.44 157.99 942.71 158.61 942.71 159.37C942.71 160.13 942.44 160.71 941.91 161.2C941.38 161.69 940.69 161.94 939.85 161.94ZM937.96 165.43L939.85 165.77L941.78 165.43V189.17H937.96V165.43Z" fill="#160833"/>
<path d="M945.1 168.62V166.77L950.31 165.8L951.82 159.41H954.13V165.5H965.69V168.61H954.13V180.63C954.13 182.76 954.6 184.25 955.54 185.11C956.48 185.96 957.94 186.39 959.93 186.39C961.19 186.39 962.31 186.24 963.29 185.93C964.27 185.62 965.21 185.17 966.11 184.59V187.99C965.44 188.41 964.45 188.8 963.15 189.17C961.85 189.53 960.51 189.72 959.14 189.72C956.98 189.72 955.26 189.36 953.97 188.63C952.68 187.9 951.75 186.89 951.18 185.6C950.6 184.31 950.32 182.87 950.32 181.27V168.62H945.11H945.1Z" fill="#160833"/>
<path d="M993.43 177.36C992.81 179.83 991.87 181.98 990.59 183.83C989.31 185.68 987.77 187.12 985.97 188.16C984.16 189.2 982.17 189.71 979.98 189.71C977.65 189.71 975.6 189.19 973.8 188.13C972.01 187.08 970.6 185.63 969.58 183.78C968.56 181.93 968.05 179.79 968.05 177.35C968.05 174.91 968.56 172.73 969.58 170.88C970.6 169.03 972.01 167.58 973.8 166.53C975.59 165.48 977.65 164.95 979.98 164.95C982.17 164.95 984.16 165.47 985.97 166.5C987.78 167.54 989.32 168.98 990.61 170.83C991.9 172.68 992.84 174.85 993.43 177.34V177.36ZM972 177.36C972 179.15 972.37 180.74 973.11 182.11C973.85 183.48 974.87 184.55 976.16 185.32C977.45 186.09 978.93 186.48 980.61 186.48C982.29 186.48 983.84 186.1 985.25 185.32C986.66 184.55 987.92 183.48 989.03 182.11C990.14 180.74 991.04 179.15 991.74 177.36C991.04 175.54 990.14 173.94 989.03 172.57C987.92 171.2 986.66 170.13 985.25 169.36C983.83 168.59 982.29 168.2 980.61 168.2C978.93 168.2 977.44 168.59 976.16 169.36C974.87 170.13 973.86 171.2 973.11 172.57C972.37 173.94 972 175.54 972 177.36ZM991.91 189.17L991.07 180.22L992.12 177.36L991.07 174.46L991.91 165.51H995.86L994.73 177.36L995.86 189.17H991.91Z" fill="#160833"/>
<path d="M1001.62 156.81H1005.44V189.16H1001.62V156.81Z" fill="#160833"/>
<path d="M1224.71 114.47L1224.66 72.4299C1224.66 70.2099 1222.05 69.03 1220.38 70.48C1209.84 79.6 1199.3 88.7199 1188.76 97.8399C1188.76 97.8399 1188.76 97.8399 1188.77 97.8399C1184.41 100.99 1180.86 105.7 1179.69 113.16C1178.86 118.41 1179.86 123.84 1182.74 128.31C1191.15 141.37 1208.72 142.38 1218.62 131.86C1222.25 128 1224.26 123.21 1224.69 118.31C1224.69 118.31 1224.7 118.31 1224.71 118.31C1224.71 118.26 1224.71 118.21 1224.71 118.16C1224.81 116.93 1224.8 115.69 1224.71 114.46V114.47Z" fill="#BE33FF"/>
<path d="M1103.01 0.679932C1101.24 0.679932 1099.79 2.03993 1099.64 3.79993C1099.17 9.16993 1098.38 14.5199 1097.23 19.7699C1095.37 28.2599 1093.37 33.1699 1091.91 36.7499C1091.02 38.9399 1090.79 39.5399 1090.6 40.4899C1090.48 41.0899 1090.41 41.4399 1090.53 41.9599C1090.88 43.4399 1092.27 44.4399 1093.79 44.4399H1135.3C1138.3 44.4399 1141.2 43.3599 1143.48 41.3999L1183.85 6.61993C1186.22 4.56993 1184.78 0.679932 1181.64 0.679932H1102.99H1103.01Z" fill="#51ED9B"/>
<path d="M1224.07 2.09993C1223.21 0.999931 1221.75 0.739932 1220.86 0.679932C1218.69 0.679932 1216.52 0.679932 1214.35 0.679932C1214.02 0.679932 1213.65 0.699932 1213.27 0.769932C1211.28 1.10993 1209.93 2.34993 1209.28 3.05993C1170.28 36.6999 1131.27 70.3399 1092.27 103.98C1090.58 105.44 1090.05 107.83 1090.98 109.86C1092.33 112.77 1093.65 116.11 1094.77 119.87C1096.38 125.26 1097.21 130.22 1097.61 134.5C1097.85 137.07 1100.02 139.03 1102.6 139.03H1115.69C1117.26 139.03 1118.79 138.47 1119.98 137.44C1154 108.34 1188.02 79.2399 1222.04 50.1399C1223.76 48.6699 1224.75 46.5199 1224.75 44.2599C1224.75 30.8999 1224.75 17.5299 1224.76 4.16993C1224.76 3.65993 1224.63 2.82993 1224.06 2.10993L1224.07 2.09993Z" fill="#EA1958"/>
<path d="M1085.68 78.3999C1085.89 64.0899 1081.16 54.7999 1078.04 48.6499C1076.65 45.9166 1076.05 44.0799 1076.24 43.1399C1076.43 42.2099 1076.65 41.6099 1077.53 39.4399C1078.98 35.8899 1080.96 31.0199 1082.81 22.5899C1084.13 16.5699 1085 10.4199 1085.42 4.25992C1085.55 2.31992 1084.04 0.669922 1082.09 0.669922H1044.87C1043.17 0.669922 1041.73 1.94992 1041.56 3.64992C1041.25 6.86992 1040.75 10.0699 1040.06 13.2199C1039.01 17.9899 1038.08 20.2799 1037 22.9399C1035.82 25.8399 1034.35 29.4599 1033.33 34.5499C1030.07 50.8399 1035.46 61.4499 1039.03 68.4699C1041.27 72.8799 1041.97 74.4299 1041.93 77.7699C1041.88 80.8899 1041.23 82.1299 1039.29 85.8099C1036.07 91.9099 1030.68 102.12 1033.25 117.88C1034.15 123.39 1035.64 127.39 1036.84 130.6C1037.95 133.56 1038.9 136.12 1039.77 141.08C1040.4 144.72 1040.77 148.45 1040.87 152.18C1040.88 152.65 1040.9 153.69 1040.89 154.97C1040.86 157.41 1040.7 159.91 1040.42 162.45C1040.2 164.43 1041.73 166.16 1043.72 166.16H1080.97C1082.72 166.16 1084.16 164.81 1084.3 163.06C1084.5 160.52 1084.62 158 1084.65 155.51C1084.67 153.61 1084.65 152.03 1084.62 151.07C1084.48 145.21 1083.89 139.32 1082.89 133.55C1081.33 124.6 1079.32 119.22 1077.85 115.28C1076.96 112.91 1076.65 112.03 1076.45 110.82C1076.32 110 1076.34 109.64 1076.33 109.64C1076.47 109.1 1077.36 107.43 1078 106.21C1080.99 100.55 1085.5 92.0099 1085.69 78.3799L1085.68 78.3999Z" fill="#F2F128"/>
<path d="M1101.85 152.89C1100.29 152.89 1099.02 154.14 1099.01 155.7C1098.96 159.5 1098.73 163.51 1098.31 167.62L1097.48 175.85C1097.21 178.52 1094.96 180.55 1092.28 180.55H1043.45C1041.21 180.55 1039.39 182.37 1039.39 184.61V192.74C1039.39 194.9 1041.14 196.65 1043.3 196.65H1220.11C1222.7 196.65 1224.8 194.55 1224.8 191.96V157.47C1224.8 154.94 1222.75 152.89 1220.22 152.89H1101.86H1101.85Z" fill="#61F3FF"/>
</g>
<defs>
<clipPath id="clip0_44_705">
<rect width="1224.8" height="196.29" fill="white"/>
</clipPath>
</defs>
</svg>
